<?xml version="1.0" encoding="utf-8"?>
<!-- Generator: Adobe Illustrator 23.0.1, SVG Export Plug-In . SVG Version: 6.00 Build 0)  -->
<svg version="1.1" xmlns="http://www.w3.org/2000/svg" xmlns:xlink="http://www.w3.org/1999/xlink" x="0px" y="0px"
	 viewBox="0 0 150 80" style="enable-background:new 0 0 150 80;" xml:space="preserve" width="150" height="80">
<style type="text/css">
	.st0{clip-path:url(#SVGID_2_);enable-background:new    ;}
	.st1{enable-background:new    ;}
	.st2{fill:#62659A;}
	.st3{clip-path:url(#SVGID_6_);enable-background:new    ;}
	.st4{clip-path:url(#SVGID_10_);enable-background:new    ;}
	.st5{clip-path:url(#SVGID_10_);}
	.st6{fill:#E1E1F2;}
	.st7{fill:#787BBD;}
	.st8{fill:#FFC37A;}
	.st9{fill:none;stroke:#000000;stroke-width:1.3;stroke-miterlimit:10;}
	.st10{clip-path:url(#SVGID_18_);}
	.st11{fill:#F0F0F9;}
	.st12{fill:#28293E;}
	.st13{fill:#1E1F2F;}
	.st14{fill:none;stroke:#787BBD;stroke-miterlimit:10;}
	.st15{fill:#5F6292;}
	.st16{fill:none;stroke:#000000;stroke-width:12;stroke-miterlimit:10;}
	.st17{fill:none;stroke:#000000;stroke-miterlimit:10;}
	.st18{fill:#ABACDC;}
	.st19{clip-path:url(#SVGID_20_);}
	.st20{fill:none;}
	.st21{clip-path:url(#SVGID_22_);}
	.st22{fill:#FCAB28;}
	.st23{fill:#FFCF3F;}
	.st24{fill:#FFD733;}
	.st25{fill:#FFE266;}
	.st26{fill:#FFCE45;}
	.st27{opacity:0.48;}
	.st28{fill:#FFFFFD;}
	.st29{fill:#FFFFFF;}
	.st30{opacity:0.35;}
	.st31{clip-path:url(#SVGID_24_);}
	.st32{fill:none;stroke:#BC370D;stroke-miterlimit:10;}
</style>
<g id="Layer_1">
</g>
<g id="Layer_3">
</g>
<g id="отрисовка">
	<path class="st6" d="M143.17,80H6.83C3.06,80,0,76.94,0,73.17V6.83C0,3.06,3.06,0,6.83,0h136.33c3.77,0,6.83,3.06,6.83,6.83v66.33
		C150,76.94,146.94,80,143.17,80z"/>
	<g>
		<path class="st11" d="M32.43,23.44c7.58,0,14.94,2.14,21.3,6.2c0.18,0.11,0.35,0.23,0.53,0.36c0.13,0.09,1.37,0.92,1.83,1.22
			c0.1,0.06,0.22,0.05,0.3-0.03l11.23-11.11c-0.15-0.12-1.44-1.09-1.59-1.21c-1.22-0.93-2.47-1.81-3.75-2.62
			c-8.91-5.69-19.23-8.69-29.84-8.69c-12.1,0-23.3,3.89-32.43,10.48v22.29C7.18,30.13,19.03,23.44,32.43,23.44z"/>
		<path class="st11" d="M24.34,60.87l6.7,6.22c4.59,4.3,9.62,3.65,13.25,0.02l60.42-58.63c0.16-0.15,0.05-0.42-0.17-0.41L71.3,8.82
			c-0.21,0-0.32,0.27-0.16,0.41l2.4,2.31c1.46,1.4,1.46,3.73,0.01,5.14L40.82,49.03c-1.58,1.53-4.08,1.56-5.69,0.05l-7.99-7.1
			c-3.74-3.49-9.59-3.47-13.3,0.06L0,55.19v17.97c0,1.15,0.29,2.23,0.79,3.18l16.12-15.31C18.8,59.25,22.44,59.1,24.34,60.87z"/>
		<path class="st11" d="M106.07,9.57L80.34,34.51l-3.42,3.34L62.85,51.52l-5.48,5.33L44.87,68.94c0,0-2.5,2.81-7.41,2.81
			c-4.04,0-6.72-2.6-6.72-2.6l-6.65-6.23c-1.8-1.9-4.41-2.45-6.81,0.14L1.8,77.78C3.05,79.14,4.84,80,6.83,80h49.96l33.03-32.7
			l2.56-2.55l4.56-4.45c1.35-1.32,3.52-1.25,4.79,0.15l2.41,2.65c0.14,0.16,0.4,0.06,0.41-0.15l1.92-33.22
			C106.48,9.53,106.22,9.42,106.07,9.57z"/>
		<path class="st11" d="M87.48,52.03L72.69,66.71c-0.01,0.11-0.05,0.75-0.06,0.86c-0.43,4.39-1.58,8.57-3.32,12.43h16.94
			c1.05-3.41,1.8-6.95,2.17-10.59c0.58-5.64,0.3-11.12-0.71-16.35C87.69,52.9,87.51,52.18,87.48,52.03z"/>
	</g>
	<g>
		<path class="st7" d="M66.53,20.49h-2.66v-1.94h7.77v1.94h-2.65v6.73h-2.45V20.49z"/>
		<path class="st7" d="M73.18,26.88c-0.58-0.3-1.03-0.71-1.36-1.24c-0.33-0.53-0.49-1.13-0.49-1.8c0-0.66,0.16-1.26,0.49-1.78
			c0.33-0.53,0.78-0.94,1.35-1.23s1.22-0.44,1.95-0.44c0.73,0,1.38,0.15,1.96,0.44s1.03,0.7,1.35,1.23
			c0.32,0.52,0.48,1.12,0.48,1.79s-0.16,1.27-0.48,1.8c-0.32,0.53-0.77,0.94-1.35,1.24s-1.23,0.45-1.96,0.45
			C74.41,27.33,73.76,27.18,73.18,26.88z M76.15,25.03c0.26-0.29,0.4-0.68,0.4-1.18c0-0.5-0.13-0.88-0.4-1.16
			c-0.26-0.28-0.6-0.42-1.02-0.42s-0.75,0.14-1.02,0.42s-0.4,0.67-0.4,1.16c0,0.5,0.13,0.9,0.4,1.18c0.26,0.28,0.6,0.43,1.02,0.43
			S75.88,25.31,76.15,25.03z"/>
		<path class="st7" d="M85.9,20.82c0.5,0.29,0.9,0.69,1.19,1.21s0.44,1.13,0.44,1.83s-0.15,1.3-0.44,1.83s-0.69,0.93-1.19,1.21
			s-1.05,0.43-1.67,0.43c-0.79,0-1.41-0.24-1.87-0.71v3h-2.35V20.5h2.24v0.67c0.44-0.52,1.1-0.78,1.98-0.78
			C84.85,20.39,85.4,20.53,85.9,20.82z M84.76,25.03c0.26-0.29,0.4-0.68,0.4-1.17s-0.13-0.89-0.4-1.17
			c-0.26-0.29-0.6-0.43-1.02-0.43s-0.75,0.14-1.02,0.43c-0.26,0.28-0.4,0.67-0.4,1.17s0.13,0.89,0.4,1.17
			c0.26,0.28,0.6,0.43,1.02,0.43S84.49,25.31,84.76,25.03z"/>
		<path class="st7" d="M96.98,18.54v8.67h-2.45v-3.38h-3.34v3.38h-2.45v-8.67h2.45v3.26h3.34v-3.26H96.98z"/>
		<path class="st7" d="M100.03,26.88c-0.58-0.3-1.03-0.71-1.36-1.24c-0.33-0.53-0.49-1.13-0.49-1.8c0-0.66,0.16-1.26,0.49-1.78
			c0.33-0.53,0.78-0.94,1.35-1.23s1.22-0.44,1.95-0.44c0.73,0,1.38,0.15,1.96,0.44s1.03,0.7,1.35,1.23
			c0.32,0.52,0.48,1.12,0.48,1.79s-0.16,1.27-0.48,1.8c-0.32,0.53-0.77,0.94-1.35,1.24s-1.23,0.45-1.96,0.45
			C101.26,27.33,100.61,27.18,100.03,26.88z M102.99,25.03c0.26-0.29,0.4-0.68,0.4-1.18c0-0.5-0.13-0.88-0.4-1.16
			c-0.26-0.28-0.6-0.42-1.02-0.42s-0.75,0.14-1.02,0.42s-0.4,0.67-0.4,1.16c0,0.5,0.13,0.9,0.4,1.18c0.26,0.28,0.6,0.43,1.02,0.43
			S102.73,25.31,102.99,25.03z"/>
		<path class="st7" d="M107.64,27.13c-0.54-0.13-0.98-0.29-1.31-0.5l0.71-1.61c0.31,0.19,0.67,0.34,1.09,0.45
			c0.42,0.11,0.84,0.17,1.25,0.17c0.38,0,0.65-0.04,0.81-0.12s0.24-0.19,0.24-0.34s-0.1-0.25-0.29-0.32s-0.5-0.12-0.92-0.18
			c-0.54-0.07-0.99-0.15-1.37-0.26c-0.38-0.11-0.7-0.31-0.97-0.59c-0.27-0.29-0.41-0.69-0.41-1.21c0-0.43,0.13-0.81,0.38-1.15
			s0.63-0.6,1.12-0.79c0.49-0.19,1.08-0.29,1.77-0.29c0.49,0,0.97,0.05,1.45,0.15c0.48,0.1,0.88,0.24,1.2,0.42l-0.71,1.6
			c-0.59-0.33-1.24-0.5-1.93-0.5c-0.37,0-0.64,0.04-0.82,0.13c-0.17,0.09-0.26,0.2-0.26,0.34c0,0.16,0.09,0.27,0.29,0.33
			c0.19,0.06,0.5,0.13,0.94,0.19c0.55,0.08,1.01,0.18,1.38,0.29s0.68,0.3,0.95,0.59c0.27,0.28,0.4,0.68,0.4,1.2
			c0,0.42-0.13,0.8-0.38,1.13c-0.26,0.33-0.63,0.6-1.13,0.79c-0.5,0.19-1.1,0.28-1.8,0.28C108.74,27.33,108.18,27.26,107.64,27.13z"
			/>
		<path class="st7" d="M118.27,26.94c-0.2,0.12-0.44,0.22-0.72,0.28c-0.28,0.07-0.59,0.1-0.91,0.1c-0.88,0-1.55-0.21-2.02-0.64
			c-0.47-0.43-0.71-1.07-0.71-1.92v-2.25h-0.98v-1.76h0.98V19h2.35v1.75h1.54v1.76h-1.54v2.23c0,0.24,0.06,0.43,0.19,0.56
			s0.3,0.2,0.51,0.2c0.27,0,0.51-0.07,0.72-0.21L118.27,26.94z"/>
		<path class="st7" d="M119.95,27.13c-0.54-0.13-0.98-0.29-1.31-0.5l0.71-1.61c0.31,0.19,0.67,0.34,1.09,0.45
			c0.42,0.11,0.84,0.17,1.25,0.17c0.38,0,0.65-0.04,0.81-0.12s0.24-0.19,0.24-0.34s-0.1-0.25-0.29-0.32s-0.5-0.12-0.92-0.18
			c-0.54-0.07-0.99-0.15-1.37-0.26c-0.38-0.11-0.7-0.31-0.97-0.59c-0.27-0.29-0.41-0.69-0.41-1.21c0-0.43,0.13-0.81,0.38-1.15
			s0.63-0.6,1.12-0.79c0.49-0.19,1.08-0.29,1.77-0.29c0.49,0,0.97,0.05,1.45,0.15c0.48,0.1,0.88,0.24,1.2,0.42l-0.71,1.6
			c-0.59-0.33-1.24-0.5-1.93-0.5c-0.37,0-0.64,0.04-0.82,0.13c-0.17,0.09-0.26,0.2-0.26,0.34c0,0.16,0.09,0.27,0.29,0.33
			c0.19,0.06,0.5,0.13,0.94,0.19c0.55,0.08,1.01,0.18,1.38,0.29s0.68,0.3,0.95,0.59c0.27,0.28,0.4,0.68,0.4,1.2
			c0,0.42-0.13,0.8-0.38,1.13c-0.26,0.33-0.63,0.6-1.13,0.79c-0.5,0.19-1.1,0.28-1.8,0.28C121.05,27.33,120.5,27.26,119.95,27.13z"
			/>
	</g>
	<line class="st14" x1="83.25" y1="28.56" x2="124.88" y2="28.56"/>
	<line class="st14" x1="63.82" y1="28.56" x2="79.12" y2="28.56"/>
	<g>
		<polygon class="st7" points="128.64,59.94 34.26,59.94 34.47,38.05 138.85,38.05 		"/>
		<g>
			<polygon class="st8" points="60.78,54.63 57.11,52.48 53.45,54.65 54.36,50.49 51.17,47.67 55.4,47.25 57.09,43.35 58.8,47.25 
				63.04,47.65 59.86,50.48 			"/>
			<polygon class="st8" points="77.27,54.63 73.59,52.48 69.93,54.65 70.84,50.49 67.65,47.67 71.88,47.25 73.58,43.35 75.28,47.25 
				79.52,47.65 76.34,50.48 			"/>
			<polygon class="st8" points="93.75,54.63 90.08,52.48 86.41,54.65 87.32,50.49 84.13,47.67 88.37,47.25 90.06,43.35 91.76,47.25 
				96,47.65 92.82,50.48 			"/>
			<polygon class="st8" points="110.23,54.63 106.56,52.48 102.89,54.65 103.8,50.49 100.61,47.67 104.85,47.25 106.54,43.35 
				108.25,47.25 112.48,47.65 109.3,50.48 			"/>
			<polygon class="st8" points="126.71,54.63 123.04,52.48 119.38,54.65 120.29,50.49 117.1,47.67 121.33,47.25 123.02,43.35 
				124.73,47.25 128.96,47.65 125.78,50.48 			"/>
		</g>
	</g>
	<g>
		<g>
			<g>
				<g>
					<path class="st22" d="M23.66,27.38c-0.12-0.03-2.94-0.87-7.56-4.81c-4.78-4.07-4.94-10.79-4.94-11.07
						c0-0.23,0.09-0.45,0.25-0.62c0.16-0.17,0.38-0.26,0.61-0.26l8.21-0.1l0.02,1.74l-7.28,0.09c0.21,1.84,1.03,6.16,4.26,8.91
						c4.29,3.66,6.89,4.45,6.92,4.46L23.66,27.38z"/>
				</g>
			</g>
			<g>
				<g>
					<path class="st22" d="M44.6,27.38l-0.48-1.67c0.02-0.01,2.62-0.8,6.92-4.46c3.23-2.75,4.05-7.07,4.26-8.91l-7.28-0.09
						l0.02-1.74l8.21,0.1c0.23,0,0.45,0.1,0.61,0.26c0.16,0.17,0.25,0.39,0.25,0.62c0,0.28-0.16,7-4.94,11.07
						C47.54,26.51,44.72,27.34,44.6,27.38z"/>
				</g>
			</g>
			<g>
				<path class="st23" d="M19.84,10.61c0,0-1.06-0.39-1.06-1.45s-0.19-1.54,0.77-2.51c0.97-0.97,8.27-2.28,14.16-2.28
					s13.93,1.61,14.9,2.48c0.97,0.87,0.58,3.19,0.39,3.57c-0.19,0.39-0.97,0.29-0.97,0.29L19.84,10.61z"/>
			</g>
			<g>
				<path class="st24" d="M33.65,7.62c-3.63,0-11.29,0.48-14.09,2.51c0,0,0,10.43,2.9,15.74c2.9,5.31,8.01,9.65,8.01,9.65h2.61h0.77
					h3.57c0,0,5.12-4.34,8.01-9.65c2.9-5.31,2.9-15.74,2.9-15.74C45.23,8.1,37.28,7.62,33.65,7.62z"/>
			</g>
			<g>
				<path class="st25" d="M33.65,7.62c-3.63,0-11.29,0.48-14.09,2.51c0,0,0,10.43,2.9,15.74c1.37,2.52,3.24,4.81,4.83,6.54
					c1.11,0.47,2.39,0.77,3.86,0.8c8.88,0.19,11.2-7.34,12.16-10.04c1.52-4.26,2.39-10.95,2.73-14.05
					C42.29,7.93,36.57,7.62,33.65,7.62z"/>
			</g>
			<path class="st26" d="M43.88,48.55c-0.87-2.61-2.7-2.22-2.7-2.22s0-0.84-1.29-0.96c-0.8-0.24-2.85-1.03-3.54-2.81
				c-0.87-2.22-0.48-5.02-0.48-5.02l-1.93-0.25L32,37.55c0,0,0.39,2.8-0.48,5.02c-0.69,1.77-2.74,2.56-3.54,2.81
				c-1.28,0.12-1.29,0.96-1.29,0.96s-1.83-0.39-2.7,2.22H43.88z"/>
			<g>
				<g>
					<path class="st22" d="M26.69,46.33c1.21-0.08,2.41-0.13,3.62-0.16c1.21-0.03,2.41-0.04,3.62-0.04c1.21,0,2.41,0.01,3.62,0.04
						c1.21,0.03,2.41,0.08,3.62,0.16c-1.21,0.08-2.41,0.13-3.62,0.16c-1.21,0.03-2.41,0.04-3.62,0.04c-1.21,0-2.41-0.01-3.62-0.04
						C29.11,46.46,27.9,46.41,26.69,46.33z"/>
				</g>
			</g>
			<g>
				<path class="st22" d="M37.41,36.87h-6.85c-0.43,0-0.77-0.35-0.77-0.77s0.35-0.77,0.77-0.77h6.85c0.43,0,0.77,0.35,0.77,0.77
					S37.84,36.87,37.41,36.87z"/>
			</g>
			<g>
				<path class="st22" d="M37.02,37.84h-6.08c-0.38,0-0.69-0.31-0.69-0.69c0-0.38,0.31-0.69,0.69-0.69h6.08
					c0.38,0,0.69,0.31,0.69,0.69C37.71,37.54,37.4,37.84,37.02,37.84z"/>
			</g>
			<g>
				<path class="st7" d="M23.74,48.45h21.07c0.71,0,1.29,0.58,1.29,1.29v8.9c0,0.71-0.58,1.29-1.29,1.29H23.74
					c-0.71,0-1.29-0.58-1.29-1.29v-8.9C22.45,49.03,23.03,48.45,23.74,48.45z"/>
			</g>
			<g>
				<path class="st22" d="M27.29,50.44h13.96c0.33,0,0.6,0.27,0.6,0.6v4.87c0,0.33-0.27,0.6-0.6,0.6H27.29c-0.33,0-0.6-0.27-0.6-0.6
					v-4.87C26.69,50.71,26.96,50.44,27.29,50.44z"/>
			</g>
			<g>
				<path class="st24" d="M29.22,50.44h4.8c0.11,0,0.21,0.27,0.21,0.6v4.87c0,0.33-0.09,0.6-0.21,0.6h-4.8
					c-0.11,0-0.21-0.27-0.21-0.6v-4.87C29.01,50.71,29.1,50.44,29.22,50.44z"/>
			</g>
			<g>
				<g>
					<path class="st25" d="M30.46,35.52c0.58-0.04,1.16-0.06,1.74-0.08c0.58-0.02,1.16-0.02,1.74-0.02c0.58,0,1.16,0,1.74,0.02
						l0.87,0.03c0.29,0.02,0.58,0.03,0.87,0.05c-0.29,0.02-0.58,0.03-0.87,0.05l-0.87,0.03c-0.58,0.02-1.16,0.02-1.74,0.02
						c-0.58,0-1.16-0.01-1.74-0.02C31.62,35.58,31.04,35.56,30.46,35.52z"/>
				</g>
			</g>
			<g>
				<g>
					<path class="st25" d="M30.49,36.68c0.59-0.04,1.18-0.06,1.77-0.08c0.59-0.02,1.18-0.02,1.77-0.02c0.59,0,1.18,0,1.77,0.02
						l0.88,0.03c0.29,0.02,0.59,0.03,0.88,0.05c-0.29,0.02-0.59,0.03-0.88,0.05l-0.88,0.03c-0.59,0.02-1.18,0.02-1.77,0.02
						c-0.59,0-1.18-0.01-1.77-0.02C31.67,36.74,31.08,36.72,30.49,36.68z"/>
				</g>
			</g>
			<path class="st25" d="M32.07,37.96c0.62-0.08,1.24-0.1,1.86-0.1c0.62,0,1.24,0.02,1.86,0.1c-0.62,0.08-1.24,0.1-1.86,0.1
				C33.31,38.06,32.69,38.04,32.07,37.96z"/>
			<g>
				<g>
					<path class="st22" d="M24.41,47.62c1.59-0.08,3.17-0.13,4.76-0.16c1.59-0.03,3.17-0.04,4.76-0.04c1.59,0,3.17,0.01,4.76,0.04
						c1.59,0.03,3.17,0.08,4.76,0.16c-1.59,0.08-3.17,0.13-4.76,0.16c-1.59,0.03-3.17,0.04-4.76,0.04c-1.59,0-3.17-0.01-4.76-0.04
						C27.58,47.75,26,47.7,24.41,47.62z"/>
				</g>
			</g>
			<g class="st27">
				<path class="st28" d="M28.77,4.63C27.14,4.79,25.57,5,24.19,5.25c-0.16,4.77-0.21,12.73,0.96,17.14
					c1.74,6.56,4.83,9.85,4.83,9.85s-1.93-9.65-1.74-18.15C28.33,10.02,28.56,6.84,28.77,4.63z"/>
			</g>
			<g>
				<g>
					<path class="st22" d="M48.32,10.13c-1.07-0.61-2.25-0.96-3.45-1.23c-1.19-0.27-2.4-0.46-3.62-0.61
						c-1.22-0.14-2.44-0.26-3.66-0.33c-1.22-0.08-2.45-0.13-3.67-0.13c-1.22-0.01-2.45,0.03-3.67,0.1
						c-1.22,0.06-2.44,0.17-3.66,0.31c-1.22,0.15-2.43,0.33-3.62,0.61c-1.19,0.28-2.38,0.63-3.42,1.29c0.5-0.35,1.04-0.67,1.62-0.88
						c0.14-0.06,0.28-0.12,0.43-0.17l0.44-0.15c0.29-0.11,0.59-0.19,0.89-0.27c1.19-0.33,2.41-0.55,3.63-0.73
						c2.44-0.35,4.91-0.5,7.38-0.5c2.47,0.03,4.93,0.2,7.37,0.55c1.22,0.18,2.43,0.41,3.63,0.73c0.3,0.07,0.59,0.17,0.89,0.27
						c0.3,0.09,0.58,0.2,0.87,0.31c0.29,0.1,0.57,0.25,0.84,0.38c0.14,0.06,0.27,0.14,0.4,0.23L48.32,10.13z"/>
				</g>
			</g>
			<g>
				<polygon class="st29" points="27.64,12.24 28.54,10.66 29.38,12.27 30.96,13.17 29.35,14.02 28.45,15.6 27.61,13.99 
					26.03,13.08 				"/>
			</g>
			<g class="st30">
				<polygon class="st29" points="24.74,59.94 28.32,59.94 37.25,48.45 33.14,48.45 				"/>
			</g>
			<g class="st30">
				<polygon class="st29" points="33.57,59.94 42.43,48.45 40.75,48.45 31.8,59.94 				"/>
			</g>
		</g>
		<g>
			<path class="st7" d="M30.25,20.03c0.29-0.28,0.86-0.3,1.16-0.03l1.05,0.97c0.72,0.67,1.5,0.57,2.07,0l9.45-9.17
				c0.02-0.02,0.01-0.07-0.03-0.06l-5.2,0.12c-0.03,0-0.05,0.04-0.03,0.06l0.37,0.36c0.23,0.22,0.23,0.58,0,0.8l-5.12,5.06
				c-0.25,0.24-0.64,0.24-0.89,0.01l-1.25-1.11c-0.59-0.55-1.5-0.54-2.08,0.01l-2.85,2.7c-0.16,0.15-0.42,0.02-0.39-0.2
				c0.39-3.05,3-5.41,6.15-5.41c1.19,0,2.34,0.34,3.33,0.97c0.03,0.02,0.06,0.04,0.08,0.06c0.02,0.01,0.21,0.14,0.29,0.19
				c0.01,0.01,0.03,0.01,0.05,0l1.76-1.74c-0.02-0.02-0.22-0.17-0.25-0.19c-0.19-0.14-0.39-0.28-0.59-0.41
				c-1.39-0.89-3.01-1.36-4.67-1.36c-4.69,0-8.52,3.74-8.68,8.39c0,0.1-0.01,0.2,0,0.3c0.04,1.49,0.37,2.54,0.71,3.22
				c0.29,0.59,1.06,0.73,1.54,0.28L30.25,20.03z"/>
			<path class="st8" d="M44.2,11.98l-4.02,3.9l-0.53,0.52l-2.2,2.14l-0.86,0.83l-1.95,1.89c0,0-0.39,0.44-1.16,0.44
				c-0.63,0-1.05-0.41-1.05-0.41l-1.04-0.97c-0.28-0.3-0.69-0.38-1.07,0.02l-4.12,3.92c-0.51,0.51-0.53,1.31-0.06,1.85
				c0,0,0.04,0.05,0.09,0.1c0.17,0.19,0.56,0.6,0.75,0.78c1.63,1.33,4.01,2.3,6.3,2.16c4.24-0.25,7.72-3.59,8.16-7.81
				c0.09-0.88,0.05-1.74-0.11-2.56c0-0.02-0.03-0.14-0.04-0.16l-2.31,2.3c0,0.02-0.01,0.12-0.01,0.13
				c-0.31,3.16-2.98,5.63-6.22,5.63c-1.26,0-2.69-0.58-3.67-1.23c-0.18-0.12-0.2-0.37-0.05-0.52l1.58-1.47
				c0.12-0.12,0.31-0.12,0.44-0.01l1.62,1.44c0.55,0.51,1.4,0.5,1.94-0.03l7.06-6.99l0.4-0.4l0.71-0.7c0.21-0.21,0.55-0.2,0.75,0.02
				l0.38,0.41c0.02,0.02,0.06,0.01,0.06-0.02l0.3-5.19C44.26,11.97,44.22,11.95,44.2,11.98z"/>
		</g>
	</g>
</g>
</svg>
