<svg width="340" height="91" viewBox="0 0 340 91" fill="none" xmlns="http://www.w3.org/2000/svg">
<path d="M70.4701 0H3.63248C1.62632 0 0 1.62632 0 3.63248V60.4861C0 61.6265 0.535489 62.7006 1.44614 63.387L34.694 88.4457C35.9833 89.4174 37.7592 89.4216 39.053 88.4559L72.6427 63.3865C73.5614 62.7009 74.1026 61.6218 74.1026 60.4754V3.63248C74.1026 1.62632 72.4762 0 70.4701 0Z" fill="#4093FF"/>
<path d="M40.792 10.4702V17.9061C40.792 18.4726 41.2512 18.9318 41.8176 18.9318H49.2535C49.8199 18.9318 50.2791 19.391 50.2791 19.9574V34.3164C50.2791 34.8828 49.8199 35.342 49.2535 35.342H25.6638C25.0973 35.342 24.6381 34.8828 24.6381 34.3164V19.9574C24.6381 19.391 25.0973 18.9318 25.6638 18.9318H32.5868C33.1533 18.9318 33.6125 18.4726 33.6125 17.9061V10.4702C33.6125 9.90378 33.1533 9.44458 32.5868 9.44458H15.9202C15.3537 9.44458 14.8945 9.90378 14.8945 10.4702V59.9682C14.8945 60.2849 15.0409 60.5839 15.291 60.7782L31.9576 73.7253C32.6314 74.2487 33.6125 73.7685 33.6125 72.9153V62.8761C33.6125 62.5168 33.4244 62.1837 33.1168 61.998L25.1338 57.1796C24.8261 56.994 24.6381 56.6609 24.6381 56.3015V45.8548C24.6381 45.2884 25.0973 44.8292 25.6638 44.8292H49.2535C49.8199 44.8292 50.2791 45.2884 50.2791 45.8548V56.285C50.2791 56.6532 50.0818 56.9932 49.762 57.1757L41.3091 62.0019C40.9893 62.1845 40.792 62.5244 40.792 62.8926V72.9153C40.792 73.7685 41.773 74.2487 42.4468 73.7253L59.1135 60.7782C59.3636 60.5839 59.5099 60.2849 59.5099 59.9682V10.4702C59.5099 9.90378 59.0507 9.44458 58.4843 9.44458H41.8176C41.2512 9.44458 40.792 9.90377 40.792 10.4702Z" fill="white"/>
<path d="M108.129 33.1793H112.608V56.064H108.129V46.5832H99.6287V56.064H95.1172V33.1793H99.6287V42.2678H108.129V33.1793ZM134.97 33.1793L127.124 47.139V56.064H122.645V47.139L114.832 33.1793H119.932L124.901 42.7255L129.87 33.1793H134.97ZM145.697 33.1793C147.898 33.1793 149.75 33.9204 151.254 35.4024C152.758 36.8845 153.51 38.7043 153.51 40.862C153.51 43.0197 152.758 44.8396 151.254 46.3217C149.75 47.8037 147.898 48.5447 145.697 48.5447H141.675V56.064H137.164V33.1793H145.697ZM145.697 44.3274C146.656 44.3274 147.451 44.0005 148.083 43.3467C148.715 42.671 149.031 41.8428 149.031 40.862C149.031 39.8595 148.715 39.0313 148.083 38.3774C147.451 37.7236 146.656 37.3967 145.697 37.3967H141.675V44.3274H145.697ZM160.959 51.7486H170.603V56.064H156.447V33.1793H170.439V37.4947H160.959V42.3659H169.622V46.6159H160.959V51.7486ZM186.337 56.064L181.727 48.1197H178.295V56.064H173.783V33.1793H182.937C185.051 33.1793 186.849 33.9204 188.331 35.4024C189.813 36.8845 190.554 38.6717 190.554 40.764C190.554 42.1806 190.151 43.4992 189.345 44.7197C188.538 45.9185 187.47 46.8229 186.141 47.4332L191.208 56.064H186.337ZM178.295 37.3967V44.164H182.937C183.787 44.164 184.517 43.837 185.127 43.1832C185.738 42.5076 186.043 41.7011 186.043 40.764C186.043 39.8268 185.738 39.0313 185.127 38.3774C184.517 37.7236 183.787 37.3967 182.937 37.3967H178.295ZM198.433 55.6717C197.888 56.2165 197.234 56.489 196.472 56.489C195.709 56.489 195.055 56.2165 194.51 55.6717C193.965 55.1268 193.693 54.4729 193.693 53.7101C193.693 52.9473 193.965 52.2935 194.51 51.7486C195.055 51.2037 195.709 50.9313 196.472 50.9313C197.234 50.9313 197.888 51.2037 198.433 51.7486C198.978 52.2935 199.25 52.9473 199.25 53.7101C199.25 54.4729 198.978 55.1268 198.433 55.6717Z" fill="#0C2F59"/>
<path d="M215.975 33.1793H220.454V56.064H215.975V46.5832H207.475V56.064H202.963V33.1793H207.475V42.2678H215.975V33.1793ZM243.961 53.089C241.651 55.3774 238.839 56.5217 235.526 56.5217C232.213 56.5217 229.402 55.3774 227.092 53.089C224.803 50.7787 223.659 47.9563 223.659 44.6217C223.659 41.287 224.803 38.4755 227.092 36.187C229.402 33.8768 232.213 32.7217 235.526 32.7217C238.839 32.7217 241.651 33.8768 243.961 36.187C246.271 38.4755 247.426 41.287 247.426 44.6217C247.426 47.9563 246.271 50.7787 243.961 53.089ZM230.263 50.0159C231.68 51.4108 233.434 52.1082 235.526 52.1082C237.619 52.1082 239.373 51.4108 240.79 50.0159C242.206 48.5992 242.915 46.8011 242.915 44.6217C242.915 42.4422 242.206 40.6441 240.79 39.2274C239.373 37.8108 237.619 37.1024 235.526 37.1024C233.434 37.1024 231.68 37.8108 230.263 39.2274C228.846 40.6441 228.138 42.4422 228.138 44.6217C228.138 46.8011 228.846 48.5992 230.263 50.0159ZM257.581 56.5217C255.314 56.5217 253.407 56.0204 251.859 55.0178C250.312 53.9935 249.222 52.6095 248.59 50.8659L252.448 48.6101C253.341 50.9422 255.096 52.1082 257.711 52.1082C258.975 52.1082 259.902 51.8793 260.49 51.4217C261.079 50.964 261.373 50.3864 261.373 49.689C261.373 48.8826 261.013 48.2614 260.294 47.8255C259.575 47.3678 258.289 46.8774 256.436 46.3543C255.412 46.0492 254.54 45.7441 253.821 45.439C253.124 45.1338 252.415 44.7306 251.696 44.2293C250.999 43.7063 250.465 43.0524 250.094 42.2678C249.724 41.4832 249.538 40.5678 249.538 39.5217C249.538 37.4511 250.268 35.8056 251.729 34.5851C253.211 33.3428 254.987 32.7217 257.058 32.7217C258.91 32.7217 260.534 33.1793 261.929 34.0947C263.345 34.9883 264.446 36.2415 265.231 37.8543L261.438 40.0447C260.523 38.0832 259.063 37.1024 257.058 37.1024C256.12 37.1024 255.379 37.3204 254.834 37.7563C254.311 38.1704 254.05 38.7152 254.05 39.3909C254.05 40.1101 254.344 40.6986 254.933 41.1563C255.543 41.5922 256.698 42.0717 258.398 42.5947C259.095 42.8127 259.618 42.987 259.967 43.1178C260.338 43.2268 260.828 43.412 261.438 43.6736C262.07 43.9133 262.55 44.1422 262.877 44.3601C263.225 44.5781 263.618 44.8723 264.054 45.2428C264.49 45.6133 264.816 45.9947 265.034 46.387C265.274 46.7793 265.47 47.2588 265.623 47.8255C265.797 48.3704 265.884 48.9697 265.884 49.6236C265.884 51.7377 265.111 53.4159 263.563 54.6582C262.038 55.9005 260.043 56.5217 257.581 56.5217ZM283.133 33.1793V37.4947H276.955V56.064H272.443V37.4947H266.297V33.1793H283.133ZM285.652 33.1793H290.164V56.064H285.652V33.1793ZM307.64 33.1793H312.152V56.064H308.719L298.911 42.0717V56.064H294.4V33.1793H297.832L307.64 47.139V33.1793ZM338.856 43.7717V45.537C338.856 48.8063 337.81 51.4543 335.718 53.4813C333.626 55.5082 330.923 56.5217 327.61 56.5217C324.08 56.5217 321.148 55.3774 318.816 53.089C316.506 50.7787 315.351 47.9672 315.351 44.6543C315.351 41.3197 316.495 38.4973 318.783 36.187C321.094 33.8768 323.949 32.7217 327.349 32.7217C329.485 32.7217 331.435 33.212 333.201 34.1928C334.966 35.1518 336.339 36.4377 337.32 38.0505L333.462 40.2736C332.917 39.3364 332.089 38.5736 330.978 37.9851C329.888 37.3967 328.667 37.1024 327.316 37.1024C325.137 37.1024 323.339 37.8217 321.922 39.2601C320.527 40.6768 319.83 42.4749 319.83 44.6543C319.83 46.812 320.538 48.5992 321.955 50.0159C323.393 51.4108 325.289 52.1082 327.643 52.1082C329.387 52.1082 330.825 51.7268 331.958 50.964C333.114 50.1793 333.898 49.1114 334.312 47.7601H327.381V43.7717H338.856Z" fill="#4093FF"/>
</svg>
