<svg width="34" height="34" viewBox="0 0 34 34" fill="none" xmlns="http://www.w3.org/2000/svg">
<g id="right" clip-path="url(#clip0_1_833)">
<g id="Group">
<path id="Vector" fill-rule="evenodd" clip-rule="evenodd" d="M22.7516 15.4983C23.1495 15.8968 23.373 16.4369 23.373 17C23.373 17.5631 23.1495 18.1032 22.7516 18.5017L14.7389 26.5172C14.5415 26.7145 14.3072 26.871 14.0493 26.9777C13.7915 27.0844 13.5151 27.1393 13.236 27.1393C12.957 27.1392 12.6806 27.0842 12.4228 26.9773C12.165 26.8705 11.9308 26.7139 11.7335 26.5165C11.5362 26.3191 11.3797 26.0848 11.2729 25.8269C11.1662 25.569 11.1113 25.2927 11.1114 25.0136C11.1114 24.7345 11.1665 24.4582 11.2733 24.2004C11.3802 23.9425 11.5368 23.7083 11.7342 23.511L18.2452 17L11.7342 10.489C11.5311 10.2931 11.3691 10.0587 11.2576 9.79947C11.1461 9.54027 11.0874 9.26145 11.0848 8.9793C11.0822 8.69715 11.1359 8.4173 11.2426 8.1561C11.3493 7.89489 11.507 7.65756 11.7064 7.45795C11.9058 7.25833 12.143 7.10043 12.4041 6.99346C12.6652 6.88649 12.945 6.83259 13.2272 6.83491C13.5093 6.83723 13.7882 6.89572 14.0475 7.00696C14.3068 7.11821 14.5414 7.27998 14.7375 7.48285L22.753 15.4969L22.7516 15.4983Z" fill="#4093FF"/>
</g>
</g>
<defs>
<clipPath id="clip0_1_833">
<rect width="34" height="34" fill="white" transform="translate(34) rotate(90)"/>
</clipPath>
</defs>
</svg>
