<svg width="40" height="40" viewBox="0 0 40 40" fill="none" xmlns="http://www.w3.org/2000/svg">
<g id="connect_icon">
<path id="Vector" d="M18.8893 13.3333H15.7227C14.1056 13.311 12.5315 13.8538 11.2718 14.868C10.0121 15.8822 9.14595 17.3043 8.82266 18.8889H2.22266V21.1111H8.81154C9.12916 22.7005 9.99535 24.1278 11.2587 25.1433C12.522 26.1589 14.1021 26.6981 15.7227 26.6666H18.8893V13.3333Z" fill="#4093FF"/>
<path id="Vector_2" d="M31.3659 18.8887C31.0419 17.3003 30.1725 15.8753 28.9082 14.8607C27.6439 13.846 26.0645 13.3056 24.4437 13.3332H21.1104V26.6665H24.4437C26.0643 26.6979 27.6443 26.1587 28.9077 25.1432C30.171 24.1277 31.0372 22.7004 31.3548 21.1109H37.777V18.8887H31.3659Z" fill="#4093FF"/>
</g>
</svg>
