<svg width="31" height="30" viewBox="0 0 31 30" fill="none" xmlns="http://www.w3.org/2000/svg">
<path d="M10.8754 12.7801H11.9942C12.1166 12.7801 12.204 12.6927 12.204 12.6053V12.1333C12.204 11.8186 12.1691 11.5389 12.1341 11.2941C12.0851 11.0509 12.0028 10.8155 11.8893 10.5948C11.793 10.384 11.6564 10.194 11.4872 10.0354C11.3124 9.89552 11.1201 9.77314 10.8754 9.68573C10.6306 9.6158 10.3509 9.56335 10.0362 9.56335C8.55018 9.56335 7.81592 10.4724 7.81592 12.2906V14.8256C7.81592 15.1403 7.8334 15.42 7.88585 15.6822C7.92081 15.9445 8.00823 16.1892 8.11312 16.4165C8.21802 16.6613 8.35788 16.8536 8.51522 17.0109C8.69004 17.1857 8.89983 17.3081 9.16207 17.3955C9.40683 17.5004 9.70403 17.5354 10.0362 17.5354C10.3684 17.5354 10.6481 17.5004 10.9103 17.3955C11.1353 17.3105 11.3402 17.1796 11.5117 17.011C11.6833 16.8425 11.8179 16.64 11.9068 16.4165C12.0117 16.1892 12.0817 15.9445 12.1166 15.6997C12.1691 15.455 12.1865 15.1752 12.204 14.878V14.441C12.2067 14.4128 12.2032 14.3843 12.1936 14.3576C12.184 14.3309 12.1686 14.3067 12.1486 14.2866C12.1285 14.2666 12.1043 14.2512 12.0776 14.2416C12.0509 14.232 12.0225 14.2285 11.9942 14.2312H10.8754C10.8486 14.2311 10.822 14.2366 10.7975 14.2473C10.7729 14.258 10.7509 14.2738 10.7328 14.2935C10.7147 14.3133 10.7009 14.3366 10.6923 14.362C10.6838 14.3874 10.6806 14.4143 10.6831 14.441V15.0004C10.6769 15.2945 10.6418 15.5873 10.5782 15.8745C10.5525 16.0084 10.4852 16.1308 10.3858 16.2242C10.2864 16.3014 10.1617 16.3388 10.0362 16.3291C9.59914 16.3291 9.37186 15.9445 9.37186 15.1927V11.871C9.37186 11.1193 9.59914 10.7522 10.0362 10.7522C10.1586 10.7522 10.246 10.7696 10.3334 10.8396C10.4208 10.892 10.4733 10.962 10.5082 11.0319C10.5607 11.1193 10.5956 11.2242 10.6131 11.3466C10.6601 11.5765 10.6777 11.8115 10.6656 12.0459V12.5703C10.6656 12.6752 10.753 12.7627 10.8754 12.7627V12.7801ZM16.8544 10.2801C16.5397 9.89552 16.0502 9.7207 15.3858 9.7207H13.8474C13.6726 9.7207 13.5327 9.86056 13.5327 10.0179V17.0983C13.5327 17.2731 13.6726 17.3955 13.8299 17.3955H14.7914C14.9663 17.3955 15.0886 17.2557 15.0886 17.0983V14.1088C15.3858 14.1088 15.6306 14.0913 15.8579 14.0389C16.0677 14.0039 16.2775 13.934 16.4698 13.8291C16.6446 13.7242 16.8194 13.6018 16.9243 13.427C17.0467 13.2522 17.1341 13.0424 17.204 12.7976C17.274 12.5354 17.3089 12.2382 17.3089 11.8885C17.3089 11.1892 17.1341 10.6473 16.8544 10.2801ZM15.8229 11.9235V12.1508C15.8231 12.2792 15.8173 12.4075 15.8054 12.5354L15.7705 12.6752C15.7567 12.7208 15.7328 12.7626 15.7005 12.7976L15.6131 12.885C15.5785 12.9178 15.5366 12.9418 15.4907 12.955C15.365 12.9873 15.2359 13.0049 15.1061 13.0074V10.8221C15.2633 10.8247 15.4182 10.8605 15.5607 10.927C15.6131 10.9445 15.6656 10.9794 15.7005 11.0494L15.7705 11.1892L15.8054 11.399C15.822 11.5499 15.8278 11.7018 15.8229 11.8536V11.9235ZM22.3439 9.7207H21.9942C21.8366 9.7207 21.6854 9.78332 21.5739 9.89479C21.4625 10.0063 21.3998 10.1575 21.3998 10.3151V14.5109C21.3946 14.8607 21.3829 15.2105 21.3649 15.5599C21.3649 15.7347 21.3299 15.8396 21.3124 15.9095C21.2782 15.9886 21.2373 16.0647 21.19 16.1368C21.1508 16.2176 21.0819 16.2802 20.9977 16.3116C20.9011 16.3387 20.8008 16.3505 20.7005 16.3466C20.5956 16.3466 20.4907 16.3466 20.4208 16.3116C20.3366 16.2802 20.2678 16.2176 20.2285 16.1368C20.1818 16.0644 20.1408 15.9884 20.1061 15.9095C20.0473 15.4398 20.0181 14.9668 20.0187 14.4934V10.3151C20.0187 10.1575 19.9561 10.0063 19.8446 9.89479C19.7331 9.78332 19.582 9.7207 19.4243 9.7207H19.0747C18.9951 9.71836 18.916 9.732 18.8418 9.76083C18.7677 9.78965 18.7001 9.83306 18.643 9.88849C18.5859 9.94392 18.5406 10.0102 18.5096 10.0835C18.4787 10.1568 18.4627 10.2356 18.4628 10.3151V14.5459C18.4698 14.9731 18.5049 15.3994 18.5677 15.8221C18.6201 16.0319 18.6726 16.2242 18.7425 16.3815C18.8124 16.5564 18.8998 16.7137 19.0047 16.8536C19.1271 17.0109 19.2495 17.1333 19.4068 17.2207C19.5642 17.3256 19.7565 17.3955 19.9663 17.448C20.1935 17.5179 20.4383 17.5354 20.7005 17.5354C20.9803 17.5354 21.225 17.5179 21.4523 17.448C21.6621 17.3955 21.8544 17.3256 22.0117 17.2207C22.1655 17.129 22.3017 17.0106 22.4138 16.871C22.6517 16.5674 22.8027 16.2048 22.8509 15.8221C22.9293 15.4015 22.9587 14.9732 22.9383 14.5459V10.3151C22.9383 10.1575 22.8757 10.0063 22.7642 9.89479C22.6527 9.78332 22.5015 9.7207 22.3439 9.7207Z" fill="#4093FF"/>
<path d="M27.8325 0H3.00733C1.57377 0 0.419922 1.15385 0.419922 2.58741V11.8531C0.419922 12.078 0.509255 12.2937 0.668267 12.4527C0.82728 12.6117 1.04295 12.701 1.26782 12.701C1.4927 12.701 1.70837 12.6117 1.86738 12.4527C2.02639 12.2937 2.11573 12.078 2.11573 11.8531V2.58741C2.11573 2.0979 2.51782 1.6958 3.00733 1.6958H27.8325C28.322 1.6958 28.7241 2.0979 28.7241 2.58741V11.8182C28.7241 12.0431 28.8135 12.2587 28.9725 12.4177C29.1315 12.5768 29.3471 12.6661 29.572 12.6661C29.7969 12.6661 30.0126 12.5768 30.1716 12.4177C30.3306 12.2587 30.4199 12.0431 30.4199 11.8182V2.58741C30.4199 1.15385 29.2661 0 27.8325 0ZM29.5808 15.3497C29.4691 15.3473 29.3581 15.3673 29.2543 15.4084C29.1504 15.4496 29.0558 15.511 28.9761 15.5892C28.8963 15.6673 28.8329 15.7606 28.7896 15.8636C28.7464 15.9666 28.7241 16.0771 28.7241 16.1888V19.9301C28.7241 20.1573 28.6367 20.3846 28.4619 20.5594L20.9794 28.042C20.8045 28.2168 20.5773 28.3042 20.35 28.3042H3.00733C2.77227 28.2997 2.54808 28.2043 2.38183 28.0381C2.21558 27.8718 2.12021 27.6477 2.11573 27.4126V16.1538C2.11573 15.929 2.02639 15.7133 1.86738 15.5543C1.70837 15.3953 1.4927 15.3059 1.26782 15.3059C1.04295 15.3059 0.82728 15.3953 0.668267 15.5543C0.509255 15.7133 0.419922 15.929 0.419922 16.1538V27.4126C0.419922 28.8462 1.57377 30 3.00733 30H20.35C21.0493 30 21.6787 29.7378 22.1682 29.2483L29.6682 21.7483C30.1577 21.2587 30.4199 20.6119 30.4199 19.9301V16.1888C30.4223 16.0772 30.4023 15.9661 30.3611 15.8623C30.32 15.7585 30.2586 15.6639 30.1804 15.5841C30.1023 15.5043 30.009 15.4409 29.906 15.3977C29.803 15.3544 29.6925 15.3321 29.5808 15.3322V15.3497Z" fill="#4093FF"/>
</svg>
