<svg width="36" height="36" viewBox="0 0 36 36" fill="none" xmlns="http://www.w3.org/2000/svg">
<path d="M18.1271 20.9497C19.7573 20.9497 21.078 19.629 21.078 18C21.078 16.371 19.7573 15.0502 18.1271 15.0502C16.4981 15.0502 15.1763 16.3699 15.1763 18C15.1763 19.6301 16.497 20.9497 18.1271 20.9497ZM18.1271 16.2304C19.1036 16.2304 19.8979 17.0246 19.8979 18C19.8979 18.9754 19.1036 19.7696 18.1271 19.7696C17.1506 19.7696 16.3564 18.9754 16.3564 18C16.3564 17.0246 17.1506 16.2304 18.1271 16.2304Z" fill="#4093FF"/>
<path d="M32.7621 19.8304C32.8364 19.2296 32.8791 18.6199 32.8791 18C32.8791 9.85274 26.2742 3.24786 18.1281 3.24786C18.127 3.24786 18.127 3.24786 18.127 3.24786C12.5324 3.24786 7.6656 6.36299 5.16473 10.9519C5.16248 10.9575 5.1591 10.962 5.15573 10.9676C5.10848 11.0542 5.06573 11.1442 5.02073 11.232C4.84748 11.5672 4.68323 11.9081 4.53473 12.258C4.51223 12.3109 4.4931 12.3649 4.47173 12.4189C3.76748 14.1412 3.37598 16.0245 3.37598 18C3.37598 26.1472 9.98085 32.7521 18.1281 32.7521C25.4575 32.7521 31.5359 27.405 32.6822 20.3996C32.7137 20.2106 32.7385 20.0205 32.7621 19.8304ZM31.6731 18.801C31.6686 18.882 31.6607 18.9619 31.6551 19.0417C31.6416 19.2296 31.6236 19.4175 31.6011 19.6031C31.591 19.6897 31.5797 19.7775 31.5685 19.8641C31.5415 20.0554 31.5111 20.2444 31.4762 20.4334C31.4639 20.502 31.4537 20.5717 31.4391 20.6404C31.3874 20.8991 31.3311 21.1556 31.2647 21.4087C31.2636 21.411 31.2636 21.4121 31.2625 21.4144C31.1984 21.6641 31.1241 21.9105 31.0454 22.1535C31.0262 22.2154 31.0037 22.2772 30.9824 22.3391C30.9194 22.527 30.8519 22.7126 30.7799 22.896C30.7551 22.9601 30.7304 23.0254 30.7034 23.0895C30.6224 23.2875 30.538 23.4821 30.4491 23.6745C30.4311 23.715 30.4142 23.7555 30.3951 23.7949C30.2815 24.0345 30.1622 24.2707 30.034 24.5025L22.969 20.2354C23.2817 19.5581 23.4606 18.8066 23.4606 18.0112C23.4606 15.0716 21.0767 12.6889 18.1371 12.6889C18.1349 12.6889 18.1337 12.69 18.1315 12.69C18.1292 12.69 18.127 12.6889 18.1247 12.6889C18.1045 12.6889 18.0842 12.6922 18.0629 12.6934C17.8862 12.6956 17.7119 12.7057 17.5409 12.7249C17.5229 12.7271 17.5049 12.7316 17.4857 12.7339C16.4822 12.8565 15.5665 13.257 14.815 13.8577L8.95935 8.00099C10.135 6.92211 11.5019 6.05024 13.0015 5.43599C13.7912 5.11311 14.6181 4.86111 15.4731 4.69011C15.4855 4.68786 15.4979 4.68561 15.5102 4.68336C15.7105 4.64399 15.913 4.60799 16.1155 4.57761C16.1594 4.57086 16.2044 4.56636 16.2494 4.56074C16.4226 4.53599 16.5959 4.51349 16.7714 4.49549C16.8625 4.48649 16.9559 4.48199 17.0481 4.47411C17.1786 4.46399 17.3091 4.45161 17.4407 4.44486C17.659 4.43361 17.8784 4.42911 18.0989 4.42799C18.1067 4.42799 18.1157 4.42686 18.1247 4.42686C24.9062 4.42686 30.5425 9.42636 31.5392 15.9345C31.6427 16.6072 31.6956 17.2969 31.6956 17.9989C31.6956 18.2677 31.6855 18.5355 31.6697 18.7999L31.6731 18.801ZM28.4927 26.7457C28.3476 26.919 28.1969 27.0866 28.0439 27.252C28.0157 27.2812 27.9876 27.3094 27.9606 27.3386C27.82 27.486 27.6771 27.6311 27.5309 27.7717C27.4982 27.8032 27.4656 27.8336 27.4319 27.8651C27.2822 28.0069 27.1304 28.1441 26.974 28.278C26.9459 28.3027 26.9177 28.3275 26.8896 28.3522C26.7119 28.503 26.5296 28.6492 26.3451 28.791C26.3395 28.7944 26.3339 28.7989 26.3282 28.8034C25.9289 29.1071 25.5115 29.3895 25.0784 29.6494L21.1634 22.3897C21.6201 22.0725 22.0217 21.6855 22.3592 21.2456L29.422 25.5105C29.1441 25.929 28.8426 26.3284 28.5209 26.7131C28.5119 26.7244 28.5017 26.7345 28.4916 26.7469L28.4927 26.7457ZM22.5426 30.8295C22.3682 30.8902 22.1927 30.9476 22.015 31.0016C21.9475 31.0219 21.8777 31.041 21.8091 31.0601C21.6471 31.1062 21.4829 31.149 21.3186 31.1895C21.241 31.2075 21.1622 31.2266 21.0835 31.2435C20.9237 31.2795 20.7629 31.311 20.6009 31.3414C20.5199 31.356 20.4389 31.3717 20.3579 31.3852C20.1914 31.4134 20.0249 31.4359 19.8572 31.4584C19.7796 31.4674 19.7031 31.4786 19.6266 31.4876C19.4387 31.5079 19.2509 31.5247 19.0607 31.5371C19.0022 31.5405 18.9449 31.5461 18.8864 31.5495C18.6355 31.563 18.3824 31.5709 18.1281 31.5709C10.8786 31.5709 4.93748 25.8581 4.5741 18.6975C4.56173 18.4657 4.5561 18.234 4.5561 18C4.5561 17.7705 4.56285 17.5421 4.57298 17.3149C4.58198 17.1416 4.5966 16.9695 4.61123 16.7974C4.61573 16.7467 4.61798 16.6961 4.62248 16.6466C4.75635 15.3157 5.08485 14.0411 5.57535 12.8509C5.57648 12.8441 5.57873 12.8385 5.57985 12.8329C6.19185 11.3512 7.05923 10.0001 8.12685 8.83574L13.9836 14.6925C13.3322 15.507 12.9171 16.5161 12.8361 17.6197C12.826 17.7469 12.8159 17.8729 12.8159 18.0022C12.8159 18.0045 12.817 18.0067 12.817 18.009C12.817 18.0112 12.8159 18.0135 12.8159 18.0146C12.8159 20.9542 15.1986 23.3381 18.1382 23.3381C18.8414 23.3381 19.5096 23.1986 20.1238 22.9522L24.04 30.2164C23.6046 30.4267 23.1557 30.6157 22.6956 30.7811C22.645 30.7991 22.5932 30.8149 22.5415 30.8329L22.5426 30.8295ZM22.2569 18C22.2569 20.2781 20.404 22.1299 18.1259 22.1299C15.85 22.1299 13.9994 20.2815 13.996 18.0067C13.9994 15.7275 15.8522 13.8735 18.1326 13.8701C20.4074 13.8735 22.2569 15.7241 22.2569 18Z" fill="#4093FF"/>
</svg>
