<svg width="40" height="40" viewBox="0 0 40 40" fill="none" xmlns="http://www.w3.org/2000/svg">
<g id="icon_shield" clip-path="url(#clip0_1_282)">
<path id="Vector" d="M34.7221 8.22252C32.2043 7.55053 29.7445 6.67735 27.3666 5.61141C25.027 4.59653 22.7686 3.40417 20.611 2.04474L19.9999 1.66696L19.3999 2.05585C17.2423 3.41528 14.9838 4.60764 12.6443 5.62252C10.2624 6.68523 7.79894 7.5547 5.27767 8.22252L4.44434 8.43363V17.7003C4.44434 32.5781 19.4777 38.1447 19.6221 38.2003L19.9999 38.3336L20.3777 38.2003C20.5332 38.2003 35.5554 32.5892 35.5554 17.7003V8.43363L34.7221 8.22252ZM29.6443 15.6114L17.2332 27.667L10.211 20.6336C9.91632 20.3389 9.75076 19.9393 9.75076 19.5225C9.75076 19.1058 9.91632 18.7061 10.211 18.4114C10.5057 18.1167 10.9054 17.9512 11.3221 17.9512C11.7389 17.9512 12.1385 18.1167 12.4332 18.4114L17.2666 23.3336L27.4777 13.3336C27.6236 13.1877 27.7968 13.072 27.9875 12.993C28.1781 12.914 28.3824 12.8734 28.5888 12.8734C28.7951 12.8734 28.9995 12.914 29.1901 12.993C29.3808 13.072 29.554 13.1877 29.6999 13.3336C29.8458 13.4795 29.9615 13.6528 30.0405 13.8434C30.1195 14.0341 30.1601 14.2384 30.1601 14.4447C30.1601 14.6511 30.1195 14.8554 30.0405 15.0461C29.9615 15.2367 29.8458 15.4099 29.6999 15.5559L29.6443 15.6114Z" fill="#4093FF"/>
</g>
<defs>
<clipPath id="clip0_1_282">
<rect width="40" height="40" fill="white"/>
</clipPath>
</defs>
</svg>
