<svg width="40" height="40" viewBox="0 0 40 40" fill="none" xmlns="http://www.w3.org/2000/svg">
<g id="icon_support">
<path id="Vector" d="M20 0C8.96 0 0 8.96 0 20C0 31.04 8.96 40 20 40C31.04 40 40 31.04 40 20C40 8.96 31.04 0 20 0ZM34.92 14.24L29.36 16.54C28.8591 15.1922 28.0724 13.9689 27.0539 12.9539C26.0355 11.9389 24.8095 11.1564 23.46 10.66L25.76 5.1C29.96 6.7 33.3 10.04 34.92 14.24ZM20 26C16.68 26 14 23.32 14 20C14 16.68 16.68 14 20 14C23.32 14 26 16.68 26 20C26 23.32 23.32 26 20 26ZM14.26 5.08L16.6 10.64C15.2346 11.1376 13.9941 11.9268 12.9648 12.9526C11.9355 13.9785 11.1422 15.2163 10.64 16.58L5.08 14.26C5.88197 12.1723 7.11355 10.2763 8.69495 8.69495C10.2763 7.11355 12.1723 5.88197 14.26 5.08ZM5.08 25.74L10.64 23.44C11.1387 24.8001 11.9287 26.0348 12.9548 27.0574C13.9809 28.08 15.2182 28.8659 16.58 29.36L14.24 34.92C12.1568 34.1144 10.2654 32.8813 8.68771 31.3002C7.11004 29.7191 5.88108 27.825 5.08 25.74ZM25.76 34.92L23.46 29.36C24.8158 28.8577 26.0458 28.0661 27.0647 27.0403C28.0836 26.0145 28.8669 24.7791 29.36 23.42L34.92 25.76C34.1154 27.8406 32.885 29.7302 31.3076 31.3076C29.7302 32.885 27.8406 34.1154 25.76 34.92Z" fill="#4093FF"/>
</g>
</svg>
