<svg width="40" height="40" viewBox="0 0 40 40" fill="none" xmlns="http://www.w3.org/2000/svg">
<g id="icon_rocket">
<path id="Vector" d="M37.3158 2.98907C37.3016 2.91998 37.2679 2.85638 37.2188 2.80574C37.1697 2.75509 37.1071 2.7195 37.0385 2.70314C32.4627 1.58439 21.8901 5.57111 16.1619 11.2969C15.1403 12.3103 14.2089 13.4108 13.3783 14.5859C11.6119 14.4297 9.84553 14.5602 8.34007 15.2164C4.09241 17.0859 2.85569 21.9641 2.51116 24.0625C2.49162 24.1774 2.49899 24.2952 2.53269 24.4067C2.5664 24.5182 2.62552 24.6204 2.7054 24.7052C2.78529 24.79 2.88376 24.8552 2.99307 24.8955C3.10239 24.9358 3.21956 24.9502 3.33538 24.9375L10.1565 24.1852C10.1613 24.6994 10.1924 25.2131 10.2494 25.7242C10.2838 26.0792 10.4413 26.4109 10.6948 26.6617L13.3362 29.2969C13.5873 29.55 13.9188 29.7075 14.2737 29.7422C14.7819 29.7991 15.2927 29.8301 15.8041 29.8352L15.0557 36.6477C15.0432 36.7634 15.0577 36.8805 15.0981 36.9898C15.1384 37.099 15.2036 37.1974 15.2883 37.2773C15.3731 37.3571 15.4752 37.4162 15.5867 37.45C15.6981 37.4838 15.8159 37.4913 15.9307 37.4719C18.0252 37.1359 22.9119 35.8992 24.7705 31.6516C25.4268 30.1461 25.5612 28.3883 25.4096 26.6305C26.5876 25.7999 27.691 24.8682 28.7073 23.8461C34.4533 18.1289 38.4174 7.7922 37.3158 2.98907ZM22.9744 17.0258C22.4497 16.5014 22.0924 15.8333 21.9475 15.1058C21.8026 14.3783 21.8767 13.6241 22.1604 12.9388C22.4442 12.2534 22.9248 11.6676 23.5416 11.2554C24.1583 10.8433 24.8834 10.6233 25.6252 10.6233C26.367 10.6233 27.0921 10.8433 27.7089 11.2554C28.3256 11.6676 28.8062 12.2534 29.09 12.9388C29.3738 13.6241 29.4479 14.3783 29.303 15.1058C29.1581 15.8333 28.8007 16.5014 28.276 17.0258C27.9281 17.3742 27.5149 17.6506 27.06 17.8392C26.6052 18.0278 26.1176 18.1249 25.6252 18.1249C25.1328 18.1249 24.6453 18.0278 24.1904 17.8392C23.7356 17.6506 23.3224 17.3742 22.9744 17.0258Z" fill="#4093FF"/>
<path id="Vector_2" d="M13.1562 31.2055C12.7281 31.6344 12.0414 31.8016 11.2148 31.9445C9.35781 32.2609 7.71797 30.6563 8.05156 28.7789C8.17891 28.0672 8.55547 27.0695 8.78984 26.8352C8.84107 26.7849 8.87517 26.7198 8.8873 26.6491C8.89942 26.5784 8.88895 26.5056 8.85739 26.4412C8.82582 26.3768 8.77475 26.3239 8.71144 26.2902C8.64812 26.2564 8.57578 26.2434 8.50469 26.2531C7.46622 26.3802 6.50011 26.851 5.76016 27.5906C3.92344 29.4289 3.75 36.25 3.75 36.25C3.75 36.25 10.575 36.0766 12.4117 34.2383C13.1536 33.4989 13.6251 32.5313 13.75 31.4914C13.7789 31.1648 13.3812 30.9703 13.1562 31.2055Z" fill="#4093FF"/>
</g>
</svg>
