<svg width="36" height="36" viewBox="0 0 36 36" fill="none" xmlns="http://www.w3.org/2000/svg">
<path d="M12.0559 8.39775H14.8118V20.5442H12.0559V8.39775ZM20.9073 8.30701C19.2313 8.30701 18.0428 8.41554 17.1941 8.56143V20.5442H19.9163V16.2012C20.1707 16.2368 20.4927 16.2564 20.8539 16.2564C22.4748 16.2564 23.8625 15.8579 24.8001 14.9736C25.5207 14.2868 25.9175 13.2798 25.9175 12.0896C25.9175 10.9011 25.3926 9.89404 24.6204 9.28022C23.8091 8.63082 22.5993 8.30701 20.9073 8.30701ZM20.8326 14.1445C20.4376 14.1445 20.1476 14.1267 19.9145 14.0716V10.4883C20.112 10.4349 20.491 10.3798 21.0514 10.3798C22.4196 10.3798 23.1953 11.0469 23.1953 12.1625C23.1953 13.4061 22.2933 14.1445 20.8326 14.1445ZM18.0001 0C9.82654 0 3.20264 6.6239 3.20264 14.7957C3.20264 22.9675 18.0001 36 18.0001 36C18.0001 36 32.7976 22.9693 32.7976 14.7975C32.7976 6.62568 26.1737 0 18.0001 0ZM18.0375 23.793C12.611 23.793 8.21282 19.3931 8.21282 13.9648C8.21282 8.5383 12.6127 4.14016 18.0375 4.14016C23.4658 4.14016 27.8621 8.54008 27.8621 13.9648C27.8621 19.3913 23.464 23.793 18.0375 23.793Z" fill="#4093FF"/>
</svg>
