<svg width="36" height="36" viewBox="0 0 36 36" fill="none" xmlns="http://www.w3.org/2000/svg">
<path d="M28.5501 3.26997L26.9701 1.67997C26.8635 1.57493 26.7198 1.51605 26.5701 1.51605C26.4204 1.51605 26.2767 1.57493 26.1701 1.67997L22.9901 4.85997C22.8851 4.96661 22.8262 5.11029 22.8262 5.25997C22.8262 5.40966 22.8851 5.55334 22.9901 5.65997L24.5801 7.24997C24.6322 7.30319 24.6945 7.34547 24.7632 7.37433C24.8318 7.40319 24.9056 7.41806 24.9801 7.41806C25.0546 7.41806 25.1283 7.40319 25.197 7.37433C25.2657 7.34547 25.328 7.30319 25.3801 7.24997L28.5501 4.06997C28.6551 3.96334 28.714 3.81966 28.714 3.66997C28.714 3.52029 28.6551 3.37661 28.5501 3.26997ZM24.9801 6.04997L24.1901 5.24997L26.5701 2.88997L27.3501 3.66997L24.9801 6.04997Z" fill="#4093FF"/>
<path d="M33.3198 8.02999L31.7198 6.44999C31.6131 6.34495 31.4695 6.28607 31.3198 6.28607C31.1701 6.28607 31.0264 6.34495 30.9198 6.44999L27.7498 9.61999C27.6447 9.72663 27.5859 9.87031 27.5859 10.02C27.5859 10.1697 27.6447 10.3134 27.7498 10.42L29.3398 12.01C29.4464 12.115 29.5901 12.1739 29.7398 12.1739C29.8895 12.1739 30.0331 12.115 30.1398 12.01L33.3198 8.82999C33.4248 8.72335 33.4837 8.57968 33.4837 8.42999C33.4837 8.28031 33.4248 8.13663 33.3198 8.02999ZM29.7398 10.81L28.9498 10.02L31.3298 7.64999L32.1098 8.42999L29.7398 10.81ZM25.7798 11.6L23.3998 9.21999C23.2919 9.11728 23.1487 9.05999 22.9998 9.05999C22.8508 9.05999 22.7076 9.11728 22.5998 9.21999L17.4398 14.38C17.2299 14.5882 17.0634 14.8359 16.9498 15.1088C16.8361 15.3817 16.7776 15.6744 16.7776 15.97C16.7776 16.2656 16.8361 16.5583 16.9498 16.8312C17.0634 17.1041 17.2299 17.3518 17.4398 17.56C17.648 17.7698 17.8957 17.9364 18.1686 18.05C18.4415 18.1637 18.7342 18.2222 19.0298 18.2222C19.3254 18.2222 19.6181 18.1637 19.891 18.05C20.1639 17.9364 20.4116 17.7698 20.6198 17.56L25.7798 12.41C25.8848 12.3034 25.9437 12.1597 25.9437 12.01C25.9437 11.8603 25.8848 11.7166 25.7798 11.61V11.6ZM19.8198 16.76C19.6058 16.9458 19.3293 17.0436 19.0461 17.0336C18.7628 17.0237 18.4939 16.9067 18.2935 16.7063C18.0931 16.5059 17.9761 16.2369 17.9661 15.9537C17.9562 15.6705 18.054 15.394 18.2398 15.18L22.9898 10.43L24.5698 12L19.8198 16.75V16.76ZM18.2398 22.32L9.49977 13.59C9.45011 13.5263 9.38748 13.4739 9.31603 13.4362C9.24459 13.3986 9.16595 13.3765 9.08534 13.3716C9.00473 13.3666 8.92399 13.3788 8.84846 13.4074C8.77293 13.436 8.70433 13.4803 8.64723 13.5374C8.59012 13.5946 8.5458 13.6631 8.5172 13.7387C8.48861 13.8142 8.47639 13.895 8.48136 13.9756C8.48633 14.0562 8.50837 14.1348 8.54602 14.2063C8.58368 14.2777 8.63609 14.3403 8.69977 14.39L17.4298 23.12C17.5364 23.225 17.6801 23.2839 17.8298 23.2839C17.9795 23.2839 18.1231 23.225 18.2298 23.12C18.3348 23.0134 18.3937 22.8697 18.3937 22.72C18.3937 22.5703 18.3348 22.4266 18.2298 22.32H18.2398ZM21.4098 25.5L19.8198 23.9C19.7701 23.8363 19.7075 23.7839 19.636 23.7462C19.5646 23.7086 19.486 23.6865 19.4053 23.6816C19.3247 23.6766 19.244 23.6888 19.1685 23.7174C19.0929 23.746 19.0243 23.7903 18.9672 23.8474C18.9101 23.9046 18.8658 23.9731 18.8372 24.0487C18.8086 24.1242 18.7964 24.205 18.8014 24.2856C18.8063 24.3662 18.8284 24.4448 18.866 24.5163C18.9037 24.5877 18.9561 24.6503 19.0198 24.7L20.6098 26.3C20.6594 26.3637 20.7221 26.4161 20.7935 26.4537C20.865 26.4914 20.9436 26.5134 21.0242 26.5184C21.1048 26.5234 21.1856 26.5112 21.2611 26.4826C21.3366 26.454 21.4052 26.4096 21.4623 26.3525C21.5194 26.2954 21.5638 26.2268 21.5923 26.1513C21.6209 26.0758 21.6332 25.995 21.6282 25.9144C21.6232 25.8338 21.6012 25.7552 21.5635 25.6837C21.5259 25.6123 21.4735 25.5497 21.4098 25.5ZM11.4998 26.68L8.31977 23.51C8.21314 23.405 8.06946 23.3461 7.91977 23.3461C7.77009 23.3461 7.62641 23.405 7.51977 23.51L5.72977 25.29C5.59674 25.4203 5.49104 25.5759 5.41889 25.7476C5.34674 25.9194 5.30957 26.1037 5.30957 26.29C5.30957 26.4762 5.34674 26.6606 5.41889 26.8323C5.49104 27.0041 5.59674 27.1596 5.72977 27.29L7.70977 29.27C7.84013 29.403 7.99571 29.5087 8.16742 29.5809C8.33914 29.653 8.52352 29.6902 8.70977 29.6902C8.89603 29.6902 9.08041 29.653 9.25212 29.5809C9.42384 29.5087 9.57942 29.403 9.70977 29.27L11.4898 27.48C11.5948 27.3734 11.6537 27.2297 11.6537 27.08C11.6537 26.9303 11.5948 26.7866 11.4898 26.68H11.4998ZM8.89977 28.47C8.79977 28.57 8.61977 28.57 8.50977 28.47L6.53977 26.49C6.51317 26.4639 6.49203 26.4328 6.4776 26.3985C6.46317 26.3641 6.45573 26.3272 6.45573 26.29C6.45573 26.2527 6.46317 26.2159 6.4776 26.1815C6.49203 26.1472 6.51317 26.1161 6.53977 26.09L7.91977 24.71L10.2898 27.09L8.90977 28.47H8.89977Z" fill="#4093FF"/>
<path d="M8.31978 28.27L6.71978 26.68C6.61193 26.5773 6.46871 26.52 6.31978 26.52C6.17085 26.52 6.02763 26.5773 5.91978 26.68L1.16978 31.45C1.06474 31.5566 1.00586 31.7003 1.00586 31.85C1.00586 31.9997 1.06474 32.1434 1.16978 32.25L2.74978 33.83C2.85642 33.935 3.0001 33.9939 3.14978 33.9939C3.29947 33.9939 3.44314 33.935 3.54978 33.83L8.31978 29.07C8.42482 28.9634 8.4837 28.8197 8.4837 28.67C8.4837 28.5203 8.42482 28.3766 8.31978 28.27ZM3.14978 32.63L2.36978 31.85L6.32978 27.89L7.10978 28.67L3.14978 32.63ZM34.4998 9.21999L25.7898 0.499991C25.4711 0.182451 25.0396 0.00415039 24.5898 0.00415039C24.1399 0.00415039 23.7084 0.182451 23.3898 0.499991L16.2598 7.64999C16.2066 7.70213 16.1643 7.76437 16.1354 7.83305C16.1066 7.90174 16.0917 7.97549 16.0917 8.04999C16.0917 8.12449 16.1066 8.19825 16.1354 8.26693C16.1643 8.33562 16.2066 8.39785 16.2598 8.44999L20.2198 12.42C20.4398 12.62 20.8198 12.62 21.0198 12.42L22.9998 10.43L24.5698 12L22.5898 13.98C22.4847 14.0866 22.4259 14.2303 22.4259 14.38C22.4259 14.5297 22.4847 14.6734 22.5898 14.78L26.5598 18.74C26.6664 18.845 26.8101 18.9039 26.9598 18.9039C27.1095 18.9039 27.2531 18.845 27.3598 18.74L34.5098 11.6C34.8243 11.2818 35.0007 10.8524 35.0007 10.405C35.0007 9.95758 34.8243 9.52821 34.5098 9.20999L34.4998 9.21999ZM33.6998 10.82L26.9598 17.55L23.7998 14.39L25.7798 12.41C25.8848 12.3034 25.9437 12.1597 25.9437 12.01C25.9437 11.8603 25.8848 11.7166 25.7798 11.61L23.3998 9.20999C23.2919 9.10728 23.1487 9.04999 22.9998 9.04999C22.8509 9.04999 22.7076 9.10728 22.5998 9.20999L20.5998 11.2L17.4398 8.03999L24.1798 1.29999C24.2847 1.19557 24.4267 1.13695 24.5748 1.13695C24.7228 1.13695 24.8648 1.19557 24.9698 1.29999L33.6898 10.02C33.9098 10.24 33.9098 10.59 33.6898 10.82H33.6998Z" fill="#4093FF"/>
<path d="M28.1598 18.75L23.3998 13.99C23.2932 13.885 23.1495 13.8261 22.9998 13.8261C22.8502 13.8261 22.7065 13.885 22.5998 13.99L19.8198 16.76C19.3898 17.19 18.6598 17.19 18.2398 16.76C18.1352 16.6568 18.0522 16.5337 17.9955 16.3981C17.9388 16.2625 17.9096 16.117 17.9096 15.97C17.9096 15.823 17.9388 15.6775 17.9955 15.5419C18.0522 15.4063 18.1352 15.2833 18.2398 15.18L20.9998 12.41C21.1049 12.3034 21.1638 12.1597 21.1638 12.01C21.1638 11.8603 21.1049 11.7166 20.9998 11.61L16.2398 6.84001C16.1332 6.73497 15.9895 6.67609 15.8398 6.67609C15.6902 6.67609 15.5465 6.73497 15.4398 6.84001L8.70985 13.6C8.64681 13.6615 8.59888 13.7368 8.56984 13.82L5.78985 22.15C5.71985 22.35 5.77984 22.58 5.92984 22.73L12.2798 29.08C12.3541 29.1546 12.4477 29.2072 12.5501 29.232C12.6524 29.2567 12.7597 29.2525 12.8598 29.22L21.1898 26.44C21.2729 26.4106 21.3481 26.3628 21.4098 26.3L28.1598 19.56C28.2649 19.4534 28.3238 19.3097 28.3238 19.16C28.3238 19.0103 28.2649 18.8666 28.1598 18.76V18.75ZM20.6998 25.4L12.8298 28.02L6.97985 22.17L9.59985 14.29L15.8498 8.04001L19.8098 12L17.4398 14.38C17.23 14.5882 17.0635 14.8359 16.9498 15.1088C16.8362 15.3817 16.7777 15.6744 16.7777 15.97C16.7777 16.2656 16.8362 16.5583 16.9498 16.8312C17.0635 17.1041 17.23 17.3518 17.4398 17.56C17.8679 17.9695 18.4374 18.1981 19.0298 18.1981C19.6222 18.1981 20.1918 17.9695 20.6198 17.56L22.9898 15.19L26.9498 19.15L20.6998 25.4Z" fill="#4093FF"/>
</svg>
