<svg width="41" height="50" viewBox="0 0 41 50" fill="none" xmlns="http://www.w3.org/2000/svg">
<path d="M38.344 0H1.9765C0.884907 0 0 0.884911 0 1.9765V32.9116C0 33.532 0.29137 34.1165 0.78687 34.49L18.8776 48.1249C19.5791 48.6536 20.5454 48.6559 21.2494 48.1304L39.5262 34.4897C40.0261 34.1167 40.3205 33.5295 40.3205 32.9058V1.9765C40.3205 0.884907 39.4356 0 38.344 0Z" fill="#4093FF"/>
<path d="M22.1948 5.69699V9.74299C22.1948 10.0512 22.4446 10.3011 22.7528 10.3011H26.7988C27.1071 10.3011 27.3569 10.5509 27.3569 10.8591V18.6721C27.3569 18.9803 27.1071 19.2302 26.7988 19.2302H13.9632C13.655 19.2302 13.4052 18.9803 13.4052 18.6721V10.8591C13.4052 10.5509 13.655 10.3011 13.9632 10.3011H17.7302C18.0384 10.3011 18.2883 10.0512 18.2883 9.74299V5.69699C18.2883 5.38877 18.0384 5.13892 17.7302 5.13892H8.66158C8.35337 5.13892 8.10352 5.38877 8.10352 5.69698V32.6297C8.10352 32.8021 8.18313 32.9647 8.31923 33.0704L17.3879 40.1152C17.7545 40.4 18.2883 40.1387 18.2883 39.6745V34.2119C18.2883 34.0164 18.186 33.8352 18.0186 33.7341L13.6749 31.1124C13.5075 31.0114 13.4052 30.8301 13.4052 30.6346V24.9504C13.4052 24.6422 13.655 24.3923 13.9632 24.3923H26.7988C27.1071 24.3923 27.3569 24.6422 27.3569 24.9504V30.6256C27.3569 30.826 27.2495 31.0109 27.0755 31.1103L22.4761 33.7363C22.3022 33.8356 22.1948 34.0206 22.1948 34.2209V39.6745C22.1948 40.1387 22.7286 40.4 23.0952 40.1152L32.1638 33.0704C32.2999 32.9647 32.3795 32.8021 32.3795 32.6297V5.69699C32.3795 5.38877 32.1297 5.13892 31.8215 5.13892H22.7528C22.4446 5.13892 22.1948 5.38877 22.1948 5.69699Z" fill="white"/>
</svg>
