<svg width="26" height="24" viewBox="0 0 26 24" fill="none" xmlns="http://www.w3.org/2000/svg">
<path d="M17.7275 15.3968L17.0851 16.0363C17.0851 16.0363 15.5562 17.5554 11.3844 13.4076C7.21256 9.25981 8.74151 7.74074 8.74151 7.74074L9.14528 7.33697C10.1434 6.3459 10.238 4.75342 9.36693 3.59012L7.58809 1.2141C6.5095 -0.225913 4.42713 -0.416503 3.19182 0.811742L0.975334 3.01411C0.364035 3.624 -0.0453801 4.41177 0.00403203 5.28707C0.131092 7.52756 1.14475 12.346 6.7975 17.9676C12.7933 23.9282 18.4192 24.1653 20.719 23.9508C21.4475 23.883 22.08 23.5131 22.5896 23.0049L24.5943 21.0114C25.9497 19.666 25.5685 17.3578 23.8348 16.4161L21.1383 14.9493C20.0004 14.3309 18.6169 14.513 17.7275 15.3968Z" fill="white"/>
</svg>
