<svg width="36" height="36" viewBox="0 0 36 36" fill="none" xmlns="http://www.w3.org/2000/svg">
<g clip-path="url(#clip0_1_408)">
<path d="M35.2174 7.82605H0.782609C0.349773 7.82605 0 8.17582 0 8.60866V22.6956C0 23.1285 0.349773 23.4782 0.782609 23.4782H1.56522V27.3913C1.56522 27.8241 1.91499 28.1739 2.34783 28.1739H33.6522C34.085 28.1739 34.4348 27.8241 34.4348 27.3913V23.4782H35.2174C35.6502 23.4782 36 23.1285 36 22.6956V8.60866C36 8.17582 35.6502 7.82605 35.2174 7.82605ZM32.8696 26.6087H30.5217H27.3913H24.2609H21.1304H18H14.8696H11.7391H8.6087H5.47826H3.13043V23.4782H5.47826H8.6087H11.7391H14.8696H18H21.1304H24.2609H27.3913H30.5217H32.8696V26.6087ZM34.4348 21.913H33.6522H2.34783H1.56522V9.39127H34.4348V21.913Z" fill="#4093FF"/>
<path d="M3.91298 20.3478H8.60863C9.04147 20.3478 9.39124 19.9981 9.39124 19.5652V11.7392C9.39124 11.3063 9.04147 10.9565 8.60863 10.9565H3.91298C3.48014 10.9565 3.13037 11.3063 3.13037 11.7392V19.5652C3.13037 19.9981 3.48014 20.3478 3.91298 20.3478ZM4.69559 12.5218H7.82602V18.7826H4.69559V12.5218Z" fill="#4093FF"/>
<path d="M11.7392 20.3478H16.4348C16.8676 20.3478 17.2174 19.9981 17.2174 19.5652V11.7392C17.2174 11.3063 16.8676 10.9565 16.4348 10.9565H11.7392C11.3063 10.9565 10.9565 11.3063 10.9565 11.7392V19.5652C10.9565 19.9981 11.3063 20.3478 11.7392 20.3478ZM12.5218 12.5218H15.6522V18.7826H12.5218V12.5218Z" fill="#4093FF"/>
<path d="M19.5653 20.3478H24.261C24.6938 20.3478 25.0436 19.9981 25.0436 19.5652V11.7392C25.0436 11.3063 24.6938 10.9565 24.261 10.9565H19.5653C19.1325 10.9565 18.7827 11.3063 18.7827 11.7392V19.5652C18.7827 19.9981 19.1325 20.3478 19.5653 20.3478ZM20.3479 12.5218H23.4784V18.7826H20.3479V12.5218Z" fill="#4093FF"/>
<path d="M27.3915 20.3478H32.0872C32.52 20.3478 32.8698 19.9981 32.8698 19.5652V11.7392C32.8698 11.3063 32.52 10.9565 32.0872 10.9565H27.3915C26.9587 10.9565 26.6089 11.3063 26.6089 11.7392V19.5652C26.6089 19.9981 26.9587 20.3478 27.3915 20.3478ZM28.1741 12.5218H31.3045V18.7826H28.1741V12.5218Z" fill="#4093FF"/>
<path d="M6.26102 25.8261V24.2609C6.26102 23.828 5.91125 23.4783 5.47841 23.4783C5.04557 23.4783 4.6958 23.828 4.6958 24.2609V25.8261C4.6958 26.2589 5.04557 26.6087 5.47841 26.6087C5.91125 26.6087 6.26102 26.2589 6.26102 25.8261Z" fill="#4093FF"/>
<path d="M9.39139 25.8261V24.2609C9.39139 23.828 9.04162 23.4783 8.60878 23.4783C8.17595 23.4783 7.82617 23.828 7.82617 24.2609V25.8261C7.82617 26.2589 8.17595 26.6087 8.60878 26.6087C9.04162 26.6087 9.39139 26.2589 9.39139 25.8261Z" fill="#4093FF"/>
<path d="M12.5218 25.8261V24.2609C12.5218 23.828 12.172 23.4783 11.7392 23.4783C11.3063 23.4783 10.9565 23.828 10.9565 24.2609V25.8261C10.9565 26.2589 11.3063 26.6087 11.7392 26.6087C12.172 26.6087 12.5218 26.2589 12.5218 25.8261Z" fill="#4093FF"/>
<path d="M15.6521 25.8261V24.2609C15.6521 23.828 15.3024 23.4783 14.8695 23.4783C14.4367 23.4783 14.0869 23.828 14.0869 24.2609V25.8261C14.0869 26.2589 14.4367 26.6087 14.8695 26.6087C15.3024 26.6087 15.6521 26.2589 15.6521 25.8261Z" fill="#4093FF"/>
<path d="M18.7825 25.8261V24.2609C18.7825 23.828 18.4327 23.4783 17.9999 23.4783C17.5671 23.4783 17.2173 23.828 17.2173 24.2609V25.8261C17.2173 26.2589 17.5671 26.6087 17.9999 26.6087C18.4327 26.6087 18.7825 26.2589 18.7825 25.8261Z" fill="#4093FF"/>
<path d="M21.9129 25.8261V24.2609C21.9129 23.828 21.5631 23.4783 21.1303 23.4783C20.6974 23.4783 20.3477 23.828 20.3477 24.2609V25.8261C20.3477 26.2589 20.6974 26.6087 21.1303 26.6087C21.5631 26.6087 21.9129 26.2589 21.9129 25.8261Z" fill="#4093FF"/>
<path d="M25.0432 25.8261V24.2609C25.0432 23.828 24.6935 23.4783 24.2606 23.4783C23.8278 23.4783 23.478 23.828 23.478 24.2609V25.8261C23.478 26.2589 23.8278 26.6087 24.2606 26.6087C24.6935 26.6087 25.0432 26.2589 25.0432 25.8261Z" fill="#4093FF"/>
<path d="M28.1741 25.8261V24.2609C28.1741 23.828 27.8243 23.4783 27.3915 23.4783C26.9587 23.4783 26.6089 23.828 26.6089 24.2609V25.8261C26.6089 26.2589 26.9587 26.6087 27.3915 26.6087C27.8243 26.6087 28.1741 26.2589 28.1741 25.8261Z" fill="#4093FF"/>
<path d="M31.3045 25.8261V24.2609C31.3045 23.828 30.9547 23.4783 30.5219 23.4783C30.089 23.4783 29.7393 23.828 29.7393 24.2609V25.8261C29.7393 26.2589 30.089 26.6087 30.5219 26.6087C30.9547 26.6087 31.3045 26.2589 31.3045 25.8261Z" fill="#4093FF"/>
</g>
<defs>
<clipPath id="clip0_1_408">
<rect width="36" height="36" fill="white"/>
</clipPath>
</defs>
</svg>
