<svg width="36" height="36" viewBox="0 0 36 36" fill="none" xmlns="http://www.w3.org/2000/svg">
<g clip-path="url(#clip0_1_449)">
<path d="M6.3001 4.19995C4.8115 4.19995 3.6001 5.41135 3.6001 6.89995C3.6001 8.38855 4.8115 9.59995 6.3001 9.59995C7.7887 9.59995 9.0001 8.38855 9.0001 6.89995C9.0001 5.41135 7.7887 4.19995 6.3001 4.19995ZM6.3001 8.39995C5.4733 8.39995 4.8001 7.72735 4.8001 6.89995C4.8001 6.07255 5.4733 5.39995 6.3001 5.39995C7.1269 5.39995 7.8001 6.07255 7.8001 6.89995C7.8001 7.72735 7.1269 8.39995 6.3001 8.39995Z" fill="#4093FF"/>
<path d="M29.9999 6.59996C30.3313 6.59996 30.5999 6.33133 30.5999 5.99996C30.5999 5.66859 30.3313 5.39996 29.9999 5.39996C29.6685 5.39996 29.3999 5.66859 29.3999 5.99996C29.3999 6.33133 29.6685 6.59996 29.9999 6.59996Z" fill="#4093FF"/>
<path d="M27.6 6.59996C27.9314 6.59996 28.2 6.33133 28.2 5.99996C28.2 5.66859 27.9314 5.39996 27.6 5.39996C27.2686 5.39996 27 5.66859 27 5.99996C27 6.33133 27.2686 6.59996 27.6 6.59996Z" fill="#4093FF"/>
<path d="M31.2001 8.39995C31.5315 8.39995 31.8001 8.13132 31.8001 7.79995C31.8001 7.46858 31.5315 7.19995 31.2001 7.19995C30.8687 7.19995 30.6001 7.46858 30.6001 7.79995C30.6001 8.13132 30.8687 8.39995 31.2001 8.39995Z" fill="#4093FF"/>
<path d="M28.8002 8.39995C29.1316 8.39995 29.4002 8.13132 29.4002 7.79995C29.4002 7.46858 29.1316 7.19995 28.8002 7.19995C28.4688 7.19995 28.2002 7.46858 28.2002 7.79995C28.2002 8.13132 28.4688 8.39995 28.8002 8.39995Z" fill="#4093FF"/>
<path d="M25.2001 6.59996C25.5315 6.59996 25.8001 6.33133 25.8001 5.99996C25.8001 5.66859 25.5315 5.39996 25.2001 5.39996C24.8687 5.39996 24.6001 5.66859 24.6001 5.99996C24.6001 6.33133 24.8687 6.59996 25.2001 6.59996Z" fill="#4093FF"/>
<path d="M26.3998 8.39995C26.7312 8.39995 26.9998 8.13132 26.9998 7.79995C26.9998 7.46858 26.7312 7.19995 26.3998 7.19995C26.0684 7.19995 25.7998 7.46858 25.7998 7.79995C25.7998 8.13132 26.0684 8.39995 26.3998 8.39995Z" fill="#4093FF"/>
<path d="M22.8002 6.59996C23.1316 6.59996 23.4002 6.33133 23.4002 5.99996C23.4002 5.66859 23.1316 5.39996 22.8002 5.39996C22.4688 5.39996 22.2002 5.66859 22.2002 5.99996C22.2002 6.33133 22.4688 6.59996 22.8002 6.59996Z" fill="#4093FF"/>
<path d="M23.9999 8.39995C24.3313 8.39995 24.5999 8.13132 24.5999 7.79995C24.5999 7.46858 24.3313 7.19995 23.9999 7.19995C23.6685 7.19995 23.3999 7.46858 23.3999 7.79995C23.3999 8.13132 23.6685 8.39995 23.9999 8.39995Z" fill="#4093FF"/>
<path d="M20.3998 6.59996C20.7312 6.59996 20.9998 6.33133 20.9998 5.99996C20.9998 5.66859 20.7312 5.39996 20.3998 5.39996C20.0684 5.39996 19.7998 5.66859 19.7998 5.99996C19.7998 6.33133 20.0684 6.59996 20.3998 6.59996Z" fill="#4093FF"/>
<path d="M21.6 8.39995C21.9314 8.39995 22.2 8.13132 22.2 7.79995C22.2 7.46858 21.9314 7.19995 21.6 7.19995C21.2686 7.19995 21 7.46858 21 7.79995C21 8.13132 21.2686 8.39995 21.6 8.39995Z" fill="#4093FF"/>
<path d="M36 10.4352V3.36478C36 1.84018 34.7598 0.599976 33.2352 0.599976H2.7648C1.2402 0.599976 0 1.84018 0 3.36478V10.4346C0 11.316 0.4218 12.0936 1.0662 12.6C0.4218 13.1064 0 13.884 0 14.7648V21.8346C0 23.3598 1.2402 24.6 2.7648 24.6H17.4V29.4606C16.2264 29.7 15.3 30.6264 15.0606 31.8H0.6C0.2688 31.8 0 32.0682 0 32.4C0 32.7318 0.2688 33 0.6 33H15.0606C15.3396 34.3674 16.551 35.4 18 35.4C19.449 35.4 20.6604 34.3674 20.9394 33H35.4C35.7312 33 36 32.7318 36 32.4C36 32.0682 35.7312 31.8 35.4 31.8H20.9394C20.7 30.6264 19.7736 29.7 18.6 29.4606V24.6H33.2352C34.7598 24.6 36 23.3598 36 21.8352V14.7648C36 13.8834 35.5782 13.1064 34.9338 12.6C35.5782 12.0936 36 11.316 36 10.4352ZM19.8 32.4C19.8 33.3924 18.9924 34.2 18 34.2C17.0076 34.2 16.2 33.3924 16.2 32.4C16.2 31.4076 17.0076 30.6 18 30.6C18.9924 30.6 19.8 31.4076 19.8 32.4ZM34.8 14.7648V21.8346C34.8 22.698 34.098 23.4 33.2352 23.4H2.7648C1.902 23.4 1.2 22.698 1.2 21.8352V14.7648C1.2 13.902 1.902 13.2 2.7648 13.2H33.2346C34.098 13.2 34.8 13.902 34.8 14.7648ZM2.7648 12C1.902 12 1.2 11.298 1.2 10.4352V3.36478C1.2 2.50198 1.902 1.79998 2.7648 1.79998H33.2346C34.098 1.79998 34.8 2.50198 34.8 3.36478V10.4346C34.8 11.298 34.098 12 33.2352 12H2.7648Z" fill="#4093FF"/>
<path d="M6.3001 21C7.7887 21 9.0001 19.7886 9.0001 18.3C9.0001 16.8114 7.7887 15.6 6.3001 15.6C4.8115 15.6 3.6001 16.8114 3.6001 18.3C3.6001 19.7886 4.8115 21 6.3001 21ZM6.3001 16.8C7.1269 16.8 7.8001 17.4726 7.8001 18.3C7.8001 19.1274 7.1269 19.8 6.3001 19.8C5.4733 19.8 4.8001 19.1274 4.8001 18.3C4.8001 17.4726 5.4733 16.8 6.3001 16.8Z" fill="#4093FF"/>
<path d="M29.9999 18C30.3313 18 30.5999 17.7314 30.5999 17.4C30.5999 17.0686 30.3313 16.8 29.9999 16.8C29.6685 16.8 29.3999 17.0686 29.3999 17.4C29.3999 17.7314 29.6685 18 29.9999 18Z" fill="#4093FF"/>
<path d="M27.6 18C27.9314 18 28.2 17.7314 28.2 17.4C28.2 17.0686 27.9314 16.8 27.6 16.8C27.2686 16.8 27 17.0686 27 17.4C27 17.7314 27.2686 18 27.6 18Z" fill="#4093FF"/>
<path d="M31.2001 19.8C31.5315 19.8 31.8001 19.5313 31.8001 19.2C31.8001 18.8686 31.5315 18.6 31.2001 18.6C30.8687 18.6 30.6001 18.8686 30.6001 19.2C30.6001 19.5313 30.8687 19.8 31.2001 19.8Z" fill="#4093FF"/>
<path d="M28.8002 19.8C29.1316 19.8 29.4002 19.5313 29.4002 19.2C29.4002 18.8686 29.1316 18.6 28.8002 18.6C28.4688 18.6 28.2002 18.8686 28.2002 19.2C28.2002 19.5313 28.4688 19.8 28.8002 19.8Z" fill="#4093FF"/>
<path d="M25.2001 18C25.5315 18 25.8001 17.7314 25.8001 17.4C25.8001 17.0686 25.5315 16.8 25.2001 16.8C24.8687 16.8 24.6001 17.0686 24.6001 17.4C24.6001 17.7314 24.8687 18 25.2001 18Z" fill="#4093FF"/>
<path d="M26.3998 19.8C26.7312 19.8 26.9998 19.5313 26.9998 19.2C26.9998 18.8686 26.7312 18.6 26.3998 18.6C26.0684 18.6 25.7998 18.8686 25.7998 19.2C25.7998 19.5313 26.0684 19.8 26.3998 19.8Z" fill="#4093FF"/>
<path d="M22.8002 18C23.1316 18 23.4002 17.7314 23.4002 17.4C23.4002 17.0686 23.1316 16.8 22.8002 16.8C22.4688 16.8 22.2002 17.0686 22.2002 17.4C22.2002 17.7314 22.4688 18 22.8002 18Z" fill="#4093FF"/>
<path d="M23.9999 19.8C24.3313 19.8 24.5999 19.5313 24.5999 19.2C24.5999 18.8686 24.3313 18.6 23.9999 18.6C23.6685 18.6 23.3999 18.8686 23.3999 19.2C23.3999 19.5313 23.6685 19.8 23.9999 19.8Z" fill="#4093FF"/>
<path d="M20.3998 18C20.7312 18 20.9998 17.7314 20.9998 17.4C20.9998 17.0686 20.7312 16.8 20.3998 16.8C20.0684 16.8 19.7998 17.0686 19.7998 17.4C19.7998 17.7314 20.0684 18 20.3998 18Z" fill="#4093FF"/>
<path d="M21.6 19.8C21.9314 19.8 22.2 19.5313 22.2 19.2C22.2 18.8686 21.9314 18.6 21.6 18.6C21.2686 18.6 21 18.8686 21 19.2C21 19.5313 21.2686 19.8 21.6 19.8Z" fill="#4093FF"/>
</g>
<defs>
<clipPath id="clip0_1_449">
<rect width="36" height="36" fill="white"/>
</clipPath>
</defs>
</svg>
