<svg width="36" height="36" viewBox="0 0 36 36" fill="none" xmlns="http://www.w3.org/2000/svg">
<path d="M17.9999 31.5C19.8603 31.5 21.3685 29.9919 21.3685 28.1314C21.3685 26.271 19.8603 24.7629 17.9999 24.7629C16.1395 24.7629 14.6313 26.271 14.6313 28.1314C14.6313 29.9919 16.1395 31.5 17.9999 31.5Z" stroke="#4093FF" stroke-width="2" stroke-linecap="round" stroke-linejoin="round"/>
<path d="M11.6484 20.5714C12.4845 19.713 13.4841 19.0307 14.5882 18.5649C15.6924 18.099 16.8786 17.859 18.0769 17.859C19.2753 17.859 20.4615 18.099 21.5656 18.5649C22.6697 19.0307 23.6693 19.713 24.5055 20.5714M6.06836 16.2257C7.63362 14.6513 9.49469 13.4019 11.5445 12.5493C13.5944 11.6968 15.7926 11.2579 18.0126 11.2579C20.2327 11.2579 22.4309 11.6968 24.4807 12.5493C26.5306 13.4019 28.3917 14.6513 29.9569 16.2257" stroke="#4093FF" stroke-width="2" stroke-linecap="round" stroke-linejoin="round"/>
<path d="M1.28564 11.4429C3.48019 9.24717 6.08584 7.5054 8.95374 6.31704C11.8216 5.12868 14.8956 4.51703 17.9999 4.51703C21.1043 4.51703 24.1782 5.12868 27.0461 6.31704C29.914 7.5054 32.5197 9.24717 34.7142 11.4429" stroke="#4093FF" stroke-width="2" stroke-linecap="round" stroke-linejoin="round"/>
</svg>
