<svg width="720" height="500" viewBox="0 0 720 500" fill="none" xmlns="http://www.w3.org/2000/svg">
<mask id="mask0_1_754" style="mask-type:luminance" maskUnits="userSpaceOnUse" x="-44" y="0" width="764" height="500">
<path d="M-44 0H720V500H-44V0Z" fill="white"/>
</mask>
<g mask="url(#mask0_1_754)">
<path d="M357.37 1V255.6H417.55V391.08L442.07 415.6V487.92M330.62 2.48V95.1H309.57V153.18L328.64 170.91V301.17H310.56V395.04L334.58 419.06V495.34" stroke="#4093FF" stroke-opacity="0.08" stroke-width="2" stroke-linecap="round" stroke-linejoin="round"/>
<path d="M365.79 1V246.2H425.98V387.12L450 411.14V467.12C450.07 468.45 450.23 469.77 450.48 471.08M340.03 0V104.77H318.98V143.9L339.78 164.7V310.34H318.98V395.04L342.75 418.82V482.47H340.53" stroke="#4093FF" stroke-opacity="0.08" stroke-width="2" stroke-linecap="round" stroke-linejoin="round"/>
<path d="M347.96 1V316.04H326.9V387.61L350.93 411.64V471.08M37.8701 0V195.66H98.0501V331.14C106.13 339.24 114.23 347.34 122.32 355.42V427.99H124.55M11.1201 0V34.92H-9.93994V93.08L8.89006 110.78V241H-8.94994V335.12L15.0801 359.14V434.93" stroke="#4093FF" stroke-opacity="0.08" stroke-width="2" stroke-linecap="round" stroke-linejoin="round"/>
<path d="M46.29 0V186.25H106.47V327.18L130.74 351.45V411.15H128.51M20.53 0V45.08H-0.52002V86.14L20.28 104.4V250.65H-0.52002V335.11L23.5 359.13V422.04" stroke="#4093FF" stroke-opacity="0.08" stroke-width="2" stroke-linecap="round" stroke-linejoin="round"/>
<path d="M28.4499 0V256.1H7.3999V327.68L31.4299 351.7V411.14M459.41 0V211.52H438.36V308.36L462.38 332.38V403.16" stroke="#4093FF" stroke-opacity="0.08" stroke-width="2" stroke-linecap="round" stroke-linejoin="round"/>
<path d="M462.38 0L468.08 4.56V219.69H446.78V304.39L470.8 328.42C470.8 347.24 470.8 365.57 470.75 383.9C470.75 385.61 472.18 388.56 468.33 388.36" stroke="#4093FF" stroke-opacity="0.08" stroke-width="2" stroke-linecap="round" stroke-linejoin="round"/>
<path d="M466.6 3.38C469.52 6.08 474.65 11.35 476.75 13.28V229.1H455.7V300.93L479.97 325.2V384.4H482.2M251.36 37.65V211.52H230.31V307.86L254.33 331.89V404.21M537.18 0V88.67H597.37V224.64L621.89 249.16V321" stroke="#4093FF" stroke-opacity="0.08" stroke-width="2" stroke-linecap="round" stroke-linejoin="round"/>
<path d="M259.78 33.6801V219.2H238.73V303.9L262.76 327.93V387.38" stroke="#4093FF" stroke-opacity="0.08" stroke-width="2" stroke-linecap="round" stroke-linejoin="round"/>
<path d="M268.7 30.71V228.85H248.14V300.93L271.92 324.7V384.4H274.15M139.9 0V151.33H118.86V248.42L142.88 272.45V344.77M545.6 0V79.75H605.3V219.7L629.81 244.22V301.19C629.81 302.44 630.91 304.76 627.83 304.16" stroke="#4093FF" stroke-opacity="0.08" stroke-width="2" stroke-linecap="round" stroke-linejoin="round"/>
<path d="M148.33 0V160H127.28V244.46L151.05 268.23V327.93H153.28M503 0L508.2 3.45V133.99H490.37V228.61L514.39 252.63V327.93" stroke="#4093FF" stroke-opacity="0.08" stroke-width="2" stroke-linecap="round" stroke-linejoin="round"/>
<path d="M157.25 0V169.41H136.19V240.49L160.71 265.01V323.96M244.92 0V125.57H223.87V198.88H244.67V141.92H234.77V178.32H232.54M452.48 0V126.31H431.42V199.38H452.22V141.92H442.57V178.32M519.84 0V143.65H498.8V228.23L522.33 252.28V315.05" stroke="#4093FF" stroke-opacity="0.08" stroke-width="2" stroke-linecap="round" stroke-linejoin="round"/>
<path d="M527.77 0V149.6H506.72V221.18L530.25 244.71V304.15M300.9 0V66.38H279.85V163.22L303.62 187V290.28H305.85" stroke="#4093FF" stroke-opacity="0.08" stroke-width="2" stroke-linecap="round" stroke-linejoin="round"/>
<path d="M309.32 0V74.06H288.27V159.26L312.29 183.28V267.49M132.97 0V66.13H111.92V139.44H132.72V81.98H123.07V117.89M205.3 0V72.07H184.24V143.41L208.27 167.43V259.56" stroke="#4093FF" stroke-opacity="0.08" stroke-width="2" stroke-linecap="round" stroke-linejoin="round"/>
<path d="M195.88 0V62.41H174.83V146.87L198.61 170.65V220.43H163.27" stroke="#4093FF" stroke-opacity="0.08" stroke-width="2" stroke-linecap="round" stroke-linejoin="round"/>
<path d="M187.96 0V54.49H166.9V151.33L190.68 175.11V209.04H149.32M318.24 0V85.86H297.18V154.68L321.21 178.7V251.58M639.22 0V44.33H618.17V141.43L642.2 165.45V230.34M413.34 0V72.07H392.3V143.9L416.32 167.93V232.99" stroke="#4093FF" stroke-opacity="0.08" stroke-width="2" stroke-linecap="round" stroke-linejoin="round"/>
<path d="M403.93 0V62.91H382.88V147.37L406.66 171.15V221.33H390.3" stroke="#4093FF" stroke-opacity="0.08" stroke-width="2" stroke-linecap="round" stroke-linejoin="round"/>
<path d="M395.51 0V54.49H374.46V151.33L398.48 175.35V209.47H374.25M-18.5999 0V6.2H-39.6699V102.38C-31.3299 111.3 -23.6699 119.48 -15.6399 128.04V229.84M647.15 0V52.76H626.1V136.4L650.12 161.44V221.41" stroke="#4093FF" stroke-opacity="0.08" stroke-width="2" stroke-linecap="round" stroke-linejoin="round"/>
<path d="M656.56 0V62.41H635.51V134L659.53 158.03V216.97M-10.1797 0V14.37H-31.2397V99.32L-7.45975 123.1V208.05H-5.22975" stroke="#4093FF" stroke-opacity="0.08" stroke-width="2" stroke-linecap="round" stroke-linejoin="round"/>
<path d="M-1.26982 0V23.78H-22.3198V95.36L1.70018 119.38V188.23M84.4302 0V2.72H63.3802V87.32L87.1502 111.04V160.74H71.0502V158.51" stroke="#4093FF" stroke-opacity="0.08" stroke-width="2" stroke-linecap="round" stroke-linejoin="round"/>
<path d="M93.8402 0V12.38H72.7902V83.96L96.8002 108V175.36M443.06 0V100.56H421.26V150.84M235.02 0V100.3H213.72V151.58H215.7M54.7002 0V91.15L78.7302 115.17V149.1H57.1802" stroke="#4093FF" stroke-opacity="0.08" stroke-width="2" stroke-linecap="round" stroke-linejoin="round"/>
<path d="M225.6 0V91.15H204.3C204.3 104.02 204.25 116.41 204.3 128.79C204.3 134.09 204.61 139.36 204.78 144.64M433.65 0V91.15H412.35V142.66H409.88M683.31 0V36.66L707.34 60.68V153.56H705.11" stroke="#4093FF" stroke-opacity="0.08" stroke-width="2" stroke-linecap="round" stroke-linejoin="round"/>
<path d="M425.23 0V82.97H403.93V129.78M673.9 0V39.63L698.17 64.94V113.89H665.97C664.66 113.89 662.87 113.39 663.5 115.87M217.18 0V82.72H196.38V129.78H193.9" stroke="#4093FF" stroke-opacity="0.08" stroke-width="2" stroke-linecap="round" stroke-linejoin="round"/>
<path d="M665.97 0V44.58L689.75 68.36V102.04H670.93C664.32 102.04 657.73 102.09 651.11 102.04M123.56 0V40.62H102.26V89.16M475.26 12.1C477.24 13.88 481.77 18.42 483.68 20.11V123.34" stroke="#4093FF" stroke-opacity="0.08" stroke-width="2" stroke-linecap="round" stroke-linejoin="round"/>
<path d="M114.15 0V30.96H92.8501V82.23M475.26 0L491.86 18.5V101.05H494.09" stroke="#4093FF" stroke-opacity="0.08" stroke-width="2" stroke-linecap="round" stroke-linejoin="round"/>
<path d="M105.73 0V23.28H84.4302V69.84M610.99 0V32.45H632.29V0M487.15 0L501.02 12.48V81.24M594.15 0C594.81 1.32 596.04 2.64 596.04 3.96C596.17 23.61 596.12 43.26 596.14 62.91M581.27 0L586.47 4.05V54H570.87" stroke="#4093FF" stroke-opacity="0.08" stroke-width="2" stroke-linecap="round" stroke-linejoin="round"/>
<path d="M569.38 0L578.05 8.07V42.6H555.5M713.03 0V42.1C713.03 43.42 712.53 45.2 715.01 44.58M703.62 0V35.17M695.2 0C695.2 6.93 695.12 13.87 695.2 20.8C695.2 22.53 694.88 23.18 693.22 22.79M622.38 0V11.4" stroke="#4093FF" stroke-opacity="0.08" stroke-width="2" stroke-linecap="round" stroke-linejoin="round"/>
<path d="M-15.6299 234.1C-14.9218 234.1 -14.2427 233.819 -13.7419 233.318C-13.2412 232.817 -12.9599 232.138 -12.9599 231.43C-12.9599 230.722 -13.2412 230.043 -13.7419 229.542C-14.2427 229.041 -14.9218 228.76 -15.6299 228.76C-16.3367 228.76 -17.0146 229.041 -17.5144 229.54C-18.0141 230.04 -18.2949 230.718 -18.2949 231.425C-18.2949 232.132 -18.0141 232.81 -17.5144 233.309C-17.0146 233.809 -16.3367 234.09 -15.6299 234.09V234.1ZM-4.97992 209.38C-4.84597 209.056 -4.77709 208.709 -4.77722 208.359C-4.77735 208.009 -4.84647 207.662 -4.98065 207.338C-5.11483 207.015 -5.31144 206.721 -5.55925 206.473C-5.80706 206.225 -6.10121 206.029 -6.42492 205.895C-6.74863 205.761 -7.09555 205.692 -7.44588 205.692C-7.79621 205.692 -8.14308 205.761 -8.46669 205.896C-8.7903 206.03 -9.08432 206.226 -9.33195 206.474C-9.57958 206.722 -9.77597 207.016 -9.90992 207.34C-10.1804 207.994 -10.1802 208.728 -9.90919 209.382C-9.6382 210.035 -9.11868 210.554 -8.46492 210.825C-7.81116 211.095 -7.07672 211.095 -6.42315 210.824C-5.76959 210.553 -5.25044 210.034 -4.97992 209.38ZM4.16008 189.28C4.29534 188.957 4.36565 188.61 4.36699 188.26C4.36833 187.91 4.30067 187.563 4.16788 187.239C4.03509 186.915 3.83978 186.62 3.59308 186.371C3.34638 186.123 3.05313 185.925 2.73008 185.79C2.40703 185.655 2.0605 185.584 1.71027 185.583C1.36005 185.582 1.01299 185.649 0.688917 185.782C0.364841 185.915 0.0700893 186.11 -0.178503 186.357C-0.427095 186.604 -0.624659 186.897 -0.75992 187.22C-1.03309 187.872 -1.0359 188.607 -0.767725 189.261C-0.499548 189.916 0.017643 190.437 0.670076 190.71C1.32251 190.983 2.05674 190.986 2.71124 190.718C3.36574 190.45 3.88691 189.932 4.16008 189.28ZM33.9401 412.6C34.0563 412.27 34.1063 411.92 34.0873 411.57C34.0683 411.221 33.9806 410.878 33.8292 410.562C33.6779 410.247 33.4658 409.964 33.2052 409.73C32.9445 409.496 32.6403 409.316 32.3101 409.2C31.9798 409.084 31.6299 409.034 31.2803 409.053C30.9306 409.072 30.5882 409.159 30.2725 409.311C29.9568 409.462 29.674 409.674 29.4402 409.935C29.2064 410.195 29.0263 410.5 28.9101 410.83C28.6767 411.497 28.7178 412.229 29.0245 412.866C29.3311 413.503 29.8781 413.992 30.5451 414.225C31.2121 414.458 31.9445 414.417 32.5812 414.111C33.2179 413.804 33.7067 413.257 33.9401 412.59V412.6ZM59.7701 150.05C59.9557 149.731 60.0734 149.378 60.1156 149.011C60.1578 148.645 60.1237 148.274 60.0153 147.921C59.907 147.569 59.7268 147.243 59.4861 146.963C59.2454 146.684 58.9495 146.457 58.6169 146.298C58.2843 146.138 57.9224 146.05 57.5538 146.037C57.1852 146.025 56.8181 146.089 56.4754 146.225C56.1328 146.362 55.8222 146.567 55.5631 146.83C55.304 147.092 55.1021 147.406 54.9701 147.75C54.7299 148.376 54.7344 149.07 54.9826 149.693C55.2307 150.317 55.7044 150.824 56.3094 151.114C56.9144 151.403 57.6063 151.455 58.2475 151.258C58.8888 151.061 59.4323 150.63 59.7701 150.05ZM73.5801 161.54C73.7344 161.225 73.8252 160.884 73.8474 160.534C73.8696 160.184 73.8227 159.834 73.7094 159.502C73.5962 159.171 73.4187 158.865 73.1872 158.602C72.9556 158.339 72.6746 158.124 72.3601 157.97C72.0456 157.816 71.7037 157.725 71.3541 157.703C71.0045 157.68 70.6539 157.727 70.3224 157.841C69.9909 157.954 69.685 158.131 69.422 158.363C69.1591 158.594 68.9444 158.875 68.7901 159.19C68.4784 159.825 68.4319 160.558 68.6607 161.228C68.8895 161.897 69.3749 162.448 70.0101 162.76C70.6453 163.072 71.3782 163.118 72.0477 162.889C72.7172 162.661 73.2684 162.175 73.5801 161.54ZM96.8101 178.37C97.5169 178.37 98.1947 178.089 98.6945 177.589C99.1943 177.09 99.4751 176.412 99.4751 175.705C99.4751 174.998 99.1943 174.32 98.6945 173.82C98.1947 173.321 97.5169 173.04 96.8101 173.04C96.1033 173.04 95.4254 173.321 94.9256 173.82C94.4259 174.32 94.1451 174.998 94.1451 175.705C94.1451 176.412 94.4259 177.09 94.9256 177.589C95.4254 178.089 96.1033 178.37 96.8101 178.37ZM84.4301 73.1499C84.7938 73.1722 85.1582 73.1198 85.5009 72.996C85.8436 72.8721 86.1573 72.6795 86.4227 72.4298C86.6881 72.1802 86.8997 71.8788 87.0442 71.5443C87.1888 71.2099 87.2634 70.8493 87.2634 70.4849C87.2634 70.1206 87.1888 69.76 87.0442 69.4256C86.8997 69.0911 86.6881 68.7897 86.4227 68.5401C86.1573 68.2904 85.8436 68.0977 85.5009 67.9739C85.1582 67.85 84.7938 67.7977 84.4301 67.8199C83.7515 67.8615 83.1143 68.1604 82.6485 68.6556C82.1827 69.1508 81.9234 69.8051 81.9234 70.4849C81.9234 71.1648 82.1827 71.8191 82.6485 72.3143C83.1143 72.8095 83.7515 73.1084 84.4301 73.1499ZM95.5101 82.0399C95.5114 82.7481 95.2314 83.4277 94.7316 83.9294C94.2318 84.431 93.5532 84.7136 92.8451 84.7149C92.1369 84.7163 91.4573 84.4362 90.9556 83.9364C90.454 83.4367 90.1714 82.7581 90.1701 82.0499C90.1687 81.3418 90.4488 80.6622 90.9486 80.1605C91.4483 79.6588 92.127 79.3763 92.8351 79.3749C93.5432 79.3736 94.2229 79.6536 94.7245 80.1534C95.2262 80.6532 95.5087 81.3318 95.5101 82.0399ZM105.11 91.4499C105.111 91.7993 105.044 92.1454 104.911 92.4686C104.779 92.7919 104.584 93.0858 104.338 93.3338C104.092 93.5817 103.799 93.7787 103.477 93.9136C103.155 94.0485 102.809 94.1186 102.46 94.1199C102.111 94.1213 101.765 94.0538 101.441 93.9213C101.118 93.7888 100.824 93.594 100.576 93.3479C100.328 93.1018 100.131 92.8093 99.9964 92.4871C99.8615 92.1649 99.7914 91.8193 99.7901 91.4699C99.7874 90.7645 100.065 90.0868 100.562 89.5861C101.059 89.0854 101.735 88.8026 102.44 88.7999C103.146 88.7973 103.823 89.075 104.324 89.572C104.825 90.0689 105.107 90.7445 105.11 91.4499ZM123.07 120.7C123.776 120.7 124.452 120.42 124.951 119.921C125.45 119.422 125.73 118.745 125.73 118.04C125.73 117.334 125.45 116.658 124.951 116.159C124.452 115.66 123.776 115.38 123.07 115.38C122.363 115.38 121.685 115.661 121.186 116.161C120.686 116.66 120.405 117.338 120.405 118.045C120.405 118.752 120.686 119.43 121.186 119.929C121.685 120.429 122.363 120.71 123.07 120.71V120.7ZM153.66 328.71C153.764 328.375 153.802 328.023 153.77 327.674C153.739 327.324 153.638 326.985 153.475 326.674C153.312 326.363 153.09 326.088 152.82 325.863C152.551 325.639 152.24 325.469 151.905 325.365C151.57 325.261 151.218 325.223 150.869 325.255C150.519 325.287 150.18 325.387 149.869 325.55C149.559 325.713 149.283 325.935 149.058 326.205C148.834 326.474 148.664 326.785 148.56 327.12C148.348 327.796 148.413 328.529 148.741 329.157C149.069 329.786 149.634 330.258 150.31 330.47C150.986 330.682 151.719 330.617 152.348 330.289C152.976 329.961 153.448 329.396 153.66 328.72V328.71ZM160.71 327.52C161.417 327.52 162.095 327.239 162.595 326.739C163.094 326.24 163.375 325.562 163.375 324.855C163.375 324.148 163.094 323.47 162.595 322.97C162.095 322.471 161.417 322.19 160.71 322.19C160.003 322.19 159.325 322.471 158.826 322.97C158.326 323.47 158.045 324.148 158.045 324.855C158.045 325.562 158.326 326.24 158.826 326.739C159.325 327.239 160.003 327.52 160.71 327.52ZM142.88 347.43C143.587 347.43 144.265 347.149 144.765 346.649C145.264 346.15 145.545 345.472 145.545 344.765C145.545 344.058 145.264 343.38 144.765 342.88C144.265 342.381 143.587 342.1 142.88 342.1C142.173 342.1 141.495 342.381 140.996 342.88C140.496 343.38 140.215 344.058 140.215 344.765C140.215 345.472 140.496 346.15 140.996 346.649C141.495 347.149 142.173 347.43 142.88 347.43ZM122.47 430.65C122.834 430.672 123.198 430.62 123.541 430.496C123.884 430.372 124.197 430.179 124.463 429.93C124.728 429.68 124.94 429.379 125.084 429.044C125.229 428.71 125.303 428.349 125.303 427.985C125.303 427.621 125.229 427.26 125.084 426.926C124.94 426.591 124.728 426.29 124.463 426.04C124.197 425.79 123.884 425.598 123.541 425.474C123.198 425.35 122.834 425.298 122.47 425.32C121.791 425.362 121.154 425.66 120.689 426.156C120.223 426.651 119.963 427.305 119.963 427.985C119.963 428.665 120.223 429.319 120.689 429.814C121.154 430.309 121.791 430.608 122.47 430.65ZM130.74 413.97C131.447 413.97 132.125 413.689 132.625 413.189C133.124 412.69 133.405 412.012 133.405 411.305C133.405 410.598 133.124 409.92 132.625 409.421C132.125 408.921 131.447 408.64 130.74 408.64C130.033 408.64 129.355 408.921 128.856 409.421C128.356 409.92 128.075 410.598 128.075 411.305C128.075 412.012 128.356 412.69 128.856 413.189C129.355 413.689 130.033 413.97 130.74 413.97ZM254.33 406.87C254.694 406.892 255.058 406.84 255.401 406.716C255.744 406.592 256.057 406.399 256.323 406.15C256.588 405.9 256.8 405.599 256.944 405.264C257.089 404.93 257.163 404.569 257.163 404.205C257.163 403.841 257.089 403.48 256.944 403.146C256.8 402.811 256.588 402.51 256.323 402.26C256.057 402.01 255.744 401.818 255.401 401.694C255.058 401.57 254.694 401.518 254.33 401.54C253.651 401.582 253.014 401.88 252.549 402.376C252.083 402.871 251.823 403.525 251.823 404.205C251.823 404.885 252.083 405.539 252.549 406.034C253.014 406.529 253.651 406.828 254.33 406.87ZM262.76 390.03C263.124 390.052 263.488 390 263.831 389.876C264.174 389.752 264.487 389.559 264.753 389.31C265.018 389.06 265.23 388.759 265.374 388.424C265.519 388.09 265.593 387.729 265.593 387.365C265.593 387.001 265.519 386.64 265.374 386.306C265.23 385.971 265.018 385.67 264.753 385.42C264.487 385.17 264.174 384.978 263.831 384.854C263.488 384.73 263.124 384.678 262.76 384.7C262.082 384.742 261.444 385.04 260.979 385.536C260.513 386.031 260.253 386.685 260.253 387.365C260.253 388.045 260.513 388.699 260.979 389.194C261.444 389.689 262.082 389.988 262.76 390.03ZM274.52 385.72C274.685 385.392 274.78 385.034 274.8 384.668C274.82 384.301 274.764 383.935 274.636 383.591C274.508 383.247 274.311 382.934 274.056 382.669C273.801 382.405 273.495 382.197 273.156 382.056C272.817 381.916 272.453 381.846 272.087 381.853C271.72 381.859 271.358 381.941 271.025 382.094C270.691 382.246 270.392 382.466 270.147 382.738C269.902 383.011 269.716 383.332 269.6 383.68C269.387 384.32 269.425 385.018 269.705 385.632C269.985 386.245 270.488 386.73 271.111 386.989C271.734 387.247 272.433 387.26 273.065 387.025C273.698 386.789 274.217 386.323 274.52 385.72ZM334.34 498.02C334.704 498.042 335.068 497.99 335.411 497.866C335.754 497.742 336.067 497.549 336.333 497.3C336.598 497.05 336.81 496.749 336.954 496.414C337.099 496.08 337.173 495.719 337.173 495.355C337.173 494.991 337.099 494.63 336.954 494.296C336.81 493.961 336.598 493.66 336.333 493.41C336.067 493.16 335.754 492.968 335.411 492.844C335.068 492.72 334.704 492.668 334.34 492.69C333.661 492.732 333.024 493.03 332.559 493.526C332.093 494.021 331.833 494.675 331.833 495.355C331.833 496.035 332.093 496.689 332.559 497.184C333.024 497.679 333.661 497.978 334.34 498.02ZM342.75 485.14C343.457 485.14 344.135 484.859 344.635 484.359C345.134 483.86 345.415 483.182 345.415 482.475C345.415 481.768 345.134 481.09 344.635 480.59C344.135 480.091 343.457 479.81 342.75 479.81C342.043 479.81 341.365 480.091 340.866 480.59C340.366 481.09 340.085 481.768 340.085 482.475C340.085 483.182 340.366 483.86 340.866 484.359C341.365 484.859 342.043 485.14 342.75 485.14ZM350.93 473.75C351.637 473.75 352.315 473.469 352.815 472.969C353.314 472.47 353.595 471.792 353.595 471.085C353.595 470.378 353.314 469.7 352.815 469.201C352.315 468.701 351.637 468.42 350.93 468.42C350.223 468.42 349.545 468.701 349.046 469.201C348.546 469.7 348.265 470.378 348.265 471.085C348.265 471.792 348.546 472.47 349.046 472.969C349.545 473.469 350.223 473.75 350.93 473.75ZM442.07 490.59C442.777 490.59 443.455 490.309 443.955 489.809C444.454 489.31 444.735 488.632 444.735 487.925C444.735 487.218 444.454 486.54 443.955 486.04C443.455 485.541 442.777 485.26 442.07 485.26C441.363 485.26 440.685 485.541 440.186 486.04C439.686 486.54 439.405 487.218 439.405 487.925C439.405 488.632 439.686 489.31 440.186 489.809C440.685 490.309 441.363 490.59 442.07 490.59ZM450.02 471.08C450.727 471.08 451.405 470.799 451.905 470.299C452.404 469.8 452.685 469.122 452.685 468.415C452.685 467.708 452.404 467.03 451.905 466.53C451.405 466.031 450.727 465.75 450.02 465.75C449.313 465.75 448.635 466.031 448.136 466.53C447.636 467.03 447.355 467.708 447.355 468.415C447.355 469.122 447.636 469.8 448.136 470.299C448.635 470.799 449.313 471.08 450.02 471.08ZM473.1 388.08C473.234 387.757 473.303 387.411 473.303 387.061C473.303 386.711 473.235 386.365 473.101 386.042C472.967 385.719 472.771 385.425 472.524 385.178C472.277 384.93 471.983 384.734 471.66 384.6C471.337 384.466 470.991 384.397 470.641 384.397C470.291 384.397 469.945 384.465 469.622 384.599C469.299 384.733 469.005 384.929 468.758 385.176C468.51 385.423 468.314 385.717 468.18 386.04C467.91 386.692 467.909 387.426 468.179 388.078C468.449 388.731 468.968 389.249 469.62 389.52C470.273 389.79 471.006 389.791 471.658 389.521C472.311 389.251 472.83 388.732 473.1 388.08ZM482.39 385.43C482.525 385.107 482.594 384.76 482.595 384.411C482.596 384.061 482.528 383.714 482.394 383.39C482.261 383.067 482.065 382.772 481.818 382.524C481.572 382.276 481.278 382.08 480.955 381.945C480.632 381.81 480.286 381.741 479.936 381.74C479.586 381.739 479.239 381.807 478.915 381.941C478.592 382.074 478.298 382.27 478.05 382.517C477.802 382.764 477.605 383.057 477.47 383.38C477.198 384.032 477.197 384.766 477.466 385.42C477.735 386.073 478.253 386.593 478.905 386.865C479.558 387.137 480.291 387.138 480.945 386.869C481.598 386.6 482.118 386.082 482.39 385.43ZM464.88 405.16C465.022 404.835 465.097 404.485 465.102 404.131C465.107 403.776 465.042 403.424 464.909 403.096C464.777 402.767 464.58 402.468 464.331 402.216C464.082 401.964 463.785 401.764 463.458 401.628C463.13 401.492 462.779 401.422 462.425 401.423C462.07 401.424 461.72 401.496 461.393 401.634C461.067 401.772 460.771 401.973 460.523 402.227C460.275 402.48 460.081 402.78 459.95 403.11C459.692 403.761 459.7 404.487 459.973 405.132C460.246 405.777 460.761 406.29 461.407 406.558C462.054 406.827 462.78 406.831 463.43 406.57C464.079 406.308 464.6 405.802 464.88 405.16ZM530.25 306.91C530.957 306.91 531.635 306.629 532.135 306.129C532.634 305.63 532.915 304.952 532.915 304.245C532.915 303.538 532.634 302.86 532.135 302.361C531.635 301.861 530.957 301.58 530.25 301.58C529.543 301.58 528.865 301.861 528.366 302.361C527.866 302.86 527.585 303.538 527.585 304.245C527.585 304.952 527.866 305.63 528.366 306.129C528.865 306.629 529.543 306.91 530.25 306.91ZM631.9 305.1C632.051 304.773 632.135 304.42 632.146 304.06C632.157 303.7 632.095 303.342 631.964 303.006C631.834 302.671 631.636 302.366 631.384 302.109C631.132 301.852 630.831 301.648 630.498 301.51C630.166 301.373 629.809 301.304 629.449 301.308C629.089 301.312 628.733 301.388 628.404 301.533C628.074 301.678 627.777 301.888 627.531 302.15C627.285 302.412 627.094 302.722 626.97 303.06C626.747 303.702 626.778 304.405 627.056 305.026C627.334 305.646 627.838 306.137 628.466 306.399C629.094 306.66 629.797 306.673 630.433 306.433C631.07 306.194 631.591 305.72 631.89 305.11L631.9 305.1ZM621.89 323.65C622.597 323.65 623.275 323.369 623.774 322.869C624.274 322.37 624.555 321.692 624.555 320.985C624.555 320.278 624.274 319.6 623.774 319.1C623.275 318.601 622.597 318.32 621.89 318.32C621.183 318.32 620.505 318.601 620.006 319.1C619.506 319.6 619.225 320.278 619.225 320.985C619.225 321.692 619.506 322.37 620.006 322.869C620.505 323.369 621.183 323.65 621.89 323.65ZM661.23 219.55C661.519 219.333 661.761 219.06 661.941 218.747C662.121 218.434 662.236 218.087 662.279 217.729C662.321 217.37 662.29 217.006 662.188 216.66C662.086 216.313 661.915 215.991 661.684 215.713C661.454 215.434 661.17 215.206 660.849 215.04C660.527 214.875 660.176 214.777 659.816 214.751C659.455 214.726 659.094 214.774 658.752 214.892C658.411 215.01 658.097 215.197 657.83 215.44C657.343 215.907 657.05 216.541 657.011 217.215C656.973 217.889 657.191 218.553 657.622 219.073C658.053 219.592 658.664 219.929 659.334 220.016C660.003 220.103 660.681 219.933 661.23 219.54V219.55ZM652.57 222.39C652.731 222.063 652.822 221.706 652.84 221.342C652.857 220.978 652.8 220.615 652.672 220.274C652.543 219.933 652.346 219.621 652.093 219.359C651.84 219.097 651.536 218.89 651.2 218.75C650.863 218.609 650.502 218.54 650.138 218.544C649.773 218.549 649.414 218.629 649.081 218.778C648.749 218.927 648.45 219.142 648.204 219.411C647.958 219.679 647.769 219.996 647.65 220.34C647.427 220.982 647.458 221.685 647.736 222.306C648.014 222.926 648.518 223.417 649.146 223.679C649.773 223.94 650.477 223.953 651.113 223.713C651.75 223.474 652.271 223 652.57 222.39ZM642.2 233C642.564 233.022 642.928 232.97 643.271 232.846C643.614 232.722 643.927 232.529 644.193 232.28C644.458 232.03 644.67 231.729 644.814 231.394C644.959 231.06 645.033 230.699 645.033 230.335C645.033 229.971 644.959 229.61 644.814 229.276C644.67 228.941 644.458 228.64 644.193 228.39C643.927 228.14 643.614 227.948 643.271 227.824C642.928 227.7 642.564 227.648 642.2 227.67C641.521 227.712 640.884 228.01 640.419 228.506C639.953 229.001 639.693 229.655 639.693 230.335C639.693 231.015 639.953 231.669 640.419 232.164C640.884 232.659 641.521 232.958 642.2 233ZM710 153.56C710 154.265 709.72 154.942 709.221 155.441C708.722 155.94 708.046 156.22 707.34 156.22C706.635 156.22 705.958 155.94 705.459 155.441C704.96 154.942 704.68 154.265 704.68 153.56C704.68 152.854 704.96 152.178 705.459 151.679C705.958 151.18 706.635 150.9 707.34 150.9C708.046 150.9 708.722 151.18 709.221 151.679C709.72 152.178 710 152.854 710 153.56Z" fill="#4093FF" fill-opacity="0.08" stroke="#4093FF" stroke-opacity="0.08" stroke-width="2" stroke-linecap="round" stroke-linejoin="round"/>
<path d="M662.06 117.17C662.193 116.848 662.262 116.503 662.262 116.155C662.262 115.807 662.193 115.462 662.06 115.14C661.927 114.819 661.731 114.526 661.485 114.28C661.239 114.034 660.947 113.838 660.625 113.705C660.303 113.572 659.958 113.503 659.61 113.503C659.262 113.503 658.917 113.572 658.595 113.705C658.273 113.838 657.981 114.033 657.735 114.28C657.489 114.526 657.293 114.818 657.16 115.14C656.891 115.79 656.891 116.52 657.16 117.17C657.429 117.819 657.945 118.336 658.595 118.605C659.245 118.874 659.975 118.874 660.625 118.605C661.274 118.336 661.791 117.82 662.06 117.17Z" fill="#4093FF" fill-opacity="0.08" stroke="#4093FF" stroke-opacity="0.08" stroke-width="1.99" stroke-linecap="round" stroke-linejoin="round"/>
<path d="M650.56 104.72C651.267 104.72 651.945 104.439 652.445 103.939C652.944 103.44 653.225 102.762 653.225 102.055C653.225 101.348 652.944 100.67 652.445 100.171C651.945 99.6707 651.267 99.39 650.56 99.39C649.853 99.39 649.175 99.6707 648.676 100.171C648.176 100.67 647.895 101.348 647.895 102.055C647.895 102.762 648.176 103.44 648.676 103.939C649.175 104.439 649.853 104.72 650.56 104.72ZM715.66 44.0299C715.66 44.7381 715.379 45.4172 714.878 45.9179C714.377 46.4186 713.698 46.7 712.99 46.7C712.282 46.7 711.603 46.4186 711.102 45.9179C710.601 45.4172 710.32 44.7381 710.32 44.0299C710.32 43.3218 710.601 42.6427 711.102 42.142C711.603 41.6413 712.282 41.36 712.99 41.36C713.698 41.36 714.377 41.6413 714.878 42.142C715.379 42.6427 715.66 43.3218 715.66 44.0299ZM706.28 35.1699C706.28 35.8754 706 36.552 705.501 37.0509C705.002 37.5497 704.326 37.83 703.62 37.83C702.915 37.83 702.238 37.5497 701.739 37.0509C701.24 36.552 700.96 35.8754 700.96 35.1699C700.96 34.4645 701.24 33.7879 701.739 33.289C702.238 32.7902 702.915 32.5099 703.62 32.5099C704.326 32.5099 705.002 32.7902 705.501 33.289C706 33.7879 706.28 34.4645 706.28 35.1699ZM694.97 25.02C695.678 25.02 696.357 24.7386 696.858 24.2379C697.359 23.7372 697.64 23.0581 697.64 22.35C697.64 21.6418 697.359 20.9627 696.858 20.462C696.357 19.9613 695.678 19.68 694.97 19.68C694.262 19.68 693.583 19.9613 693.082 20.462C692.581 20.9627 692.3 21.6418 692.3 22.35C692.3 23.0581 692.581 23.7372 693.082 24.2379C693.583 24.7386 694.262 25.02 694.97 25.02ZM306.18 291.3C306.341 290.973 306.432 290.616 306.45 290.252C306.467 289.888 306.41 289.525 306.282 289.184C306.153 288.843 305.957 288.531 305.703 288.269C305.45 288.007 305.146 287.8 304.81 287.66C304.474 287.519 304.112 287.45 303.748 287.454C303.383 287.459 303.024 287.539 302.691 287.688C302.359 287.837 302.06 288.052 301.814 288.321C301.568 288.589 301.379 288.906 301.26 289.25C301.038 289.892 301.068 290.595 301.346 291.216C301.624 291.836 302.128 292.327 302.756 292.589C303.384 292.85 304.087 292.863 304.724 292.623C305.36 292.384 305.881 291.91 306.18 291.3ZM314.87 268.8C314.991 268.454 315.038 268.087 315.011 267.722C314.984 267.357 314.881 267.001 314.711 266.677C314.54 266.354 314.305 266.068 314.019 265.839C313.733 265.61 313.404 265.442 313.05 265.346C312.697 265.25 312.328 265.227 311.965 265.28C311.603 265.332 311.255 265.459 310.944 265.651C310.632 265.844 310.364 266.099 310.155 266.4C309.946 266.7 309.802 267.041 309.73 267.4C309.598 268.063 309.722 268.752 310.078 269.327C310.434 269.902 310.994 270.32 311.647 270.498C312.299 270.676 312.995 270.599 313.593 270.284C314.191 269.969 314.648 269.439 314.87 268.8ZM321.23 253.83C321.937 253.83 322.615 253.549 323.115 253.049C323.614 252.55 323.895 251.872 323.895 251.165C323.895 250.458 323.614 249.78 323.115 249.281C322.615 248.781 321.937 248.5 321.23 248.5C320.523 248.5 319.845 248.781 319.346 249.281C318.846 249.78 318.565 250.458 318.565 251.165C318.565 251.872 318.846 252.55 319.346 253.049C319.845 253.549 320.523 253.83 321.23 253.83ZM234.4 181.03C235.107 181.03 235.785 180.749 236.285 180.249C236.784 179.75 237.065 179.072 237.065 178.365C237.065 177.658 236.784 176.98 236.285 176.481C235.785 175.981 235.107 175.7 234.4 175.7C233.693 175.7 233.015 175.981 232.516 176.481C232.016 176.98 231.735 177.658 231.735 178.365C231.735 179.072 232.016 179.75 232.516 180.249C233.015 180.749 233.693 181.03 234.4 181.03ZM216.02 152.93C216.219 152.627 216.354 152.286 216.416 151.929C216.479 151.572 216.468 151.206 216.385 150.853C216.302 150.5 216.147 150.168 215.931 149.876C215.715 149.585 215.442 149.341 215.129 149.159C214.815 148.976 214.468 148.86 214.108 148.816C213.748 148.773 213.383 148.803 213.035 148.905C212.687 149.007 212.363 149.179 212.084 149.41C211.805 149.641 211.575 149.927 211.41 150.25C211.099 150.858 211.032 151.563 211.225 152.219C211.417 152.875 211.854 153.432 212.445 153.775C213.036 154.119 213.736 154.222 214.401 154.065C215.066 153.908 215.646 153.502 216.02 152.93ZM207.03 146.65C207.191 146.323 207.282 145.966 207.3 145.602C207.317 145.238 207.26 144.875 207.132 144.534C207.003 144.193 206.807 143.881 206.553 143.619C206.3 143.357 205.996 143.15 205.66 143.01C205.324 142.869 204.962 142.8 204.598 142.804C204.233 142.809 203.874 142.889 203.541 143.038C203.209 143.187 202.91 143.402 202.664 143.671C202.418 143.939 202.229 144.256 202.11 144.6C201.888 145.242 201.918 145.945 202.196 146.566C202.474 147.186 202.978 147.677 203.606 147.939C204.234 148.2 204.937 148.213 205.574 147.973C206.21 147.734 206.731 147.26 207.03 146.65ZM198.47 130.6C198.602 130.261 198.663 129.9 198.649 129.537C198.636 129.174 198.549 128.817 198.393 128.489C198.238 128.161 198.017 127.868 197.744 127.629C197.471 127.389 197.153 127.207 196.807 127.095C196.462 126.982 196.097 126.942 195.736 126.975C195.374 127.008 195.023 127.115 194.704 127.289C194.385 127.462 194.105 127.699 193.881 127.985C193.657 128.271 193.493 128.599 193.4 128.95C193.234 129.607 193.324 130.303 193.652 130.897C193.98 131.49 194.522 131.936 195.167 132.145C195.812 132.353 196.512 132.309 197.126 132.02C197.739 131.731 198.22 131.22 198.47 130.59V130.6ZM151.65 210.33C151.991 209.711 152.072 208.981 151.875 208.302C151.678 207.624 151.219 207.051 150.6 206.71C149.981 206.369 149.252 206.288 148.573 206.485C147.894 206.682 147.321 207.141 146.98 207.76C146.811 208.067 146.705 208.403 146.666 208.751C146.628 209.099 146.658 209.451 146.755 209.787C146.853 210.124 147.016 210.437 147.234 210.71C147.453 210.984 147.723 211.211 148.03 211.38C148.337 211.549 148.674 211.655 149.022 211.694C149.369 211.733 149.721 211.702 150.058 211.605C150.394 211.507 150.707 211.344 150.981 211.126C151.254 210.907 151.481 210.637 151.65 210.33ZM168.18 221.54C168.353 221.235 168.464 220.9 168.507 220.552C168.55 220.204 168.524 219.852 168.43 219.514C168.337 219.177 168.178 218.861 167.963 218.585C167.747 218.309 167.48 218.078 167.175 217.905C166.87 217.732 166.535 217.621 166.187 217.578C165.84 217.535 165.487 217.561 165.149 217.655C164.812 217.748 164.496 217.907 164.22 218.122C163.944 218.338 163.713 218.605 163.54 218.91C163.191 219.525 163.101 220.254 163.29 220.936C163.478 221.617 163.93 222.196 164.545 222.545C165.16 222.894 165.889 222.984 166.571 222.795C167.252 222.607 167.831 222.155 168.18 221.54ZM210.53 260.99C210.714 260.693 210.837 260.362 210.893 260.017C210.949 259.671 210.937 259.319 210.857 258.978C210.776 258.638 210.63 258.317 210.425 258.033C210.221 257.749 209.963 257.509 209.665 257.325C209.368 257.141 209.037 257.018 208.692 256.962C208.347 256.906 207.994 256.918 207.653 256.998C207.313 257.079 206.992 257.225 206.708 257.43C206.425 257.634 206.184 257.893 206 258.19C205.629 258.791 205.511 259.514 205.674 260.202C205.836 260.889 206.264 261.484 206.865 261.855C207.466 262.226 208.189 262.344 208.877 262.182C209.564 262.019 210.159 261.591 210.53 260.99ZM374.25 212.13C374.957 212.13 375.635 211.849 376.135 211.349C376.634 210.85 376.915 210.172 376.915 209.465C376.915 208.758 376.634 208.08 376.135 207.581C375.635 207.081 374.957 206.8 374.25 206.8C373.543 206.8 372.865 207.081 372.366 207.581C371.866 208.08 371.585 208.758 371.585 209.465C371.585 210.172 371.866 210.85 372.366 211.349C372.865 211.849 373.543 212.13 374.25 212.13ZM390.4 224C391.107 224 391.785 223.719 392.285 223.219C392.784 222.72 393.065 222.042 393.065 221.335C393.065 220.628 392.784 219.95 392.285 219.451C391.785 218.951 391.107 218.67 390.4 218.67C389.693 218.67 389.015 218.951 388.516 219.451C388.016 219.95 387.735 220.628 387.735 221.335C387.735 222.042 388.016 222.72 388.516 223.219C389.015 223.719 389.693 224 390.4 224ZM416.31 235.65C416.674 235.672 417.038 235.62 417.381 235.496C417.724 235.372 418.037 235.179 418.303 234.93C418.568 234.68 418.78 234.379 418.924 234.044C419.069 233.71 419.143 233.349 419.143 232.985C419.143 232.621 419.069 232.26 418.924 231.926C418.78 231.591 418.568 231.29 418.303 231.04C418.037 230.79 417.724 230.598 417.381 230.474C417.038 230.35 416.674 230.298 416.31 230.32C415.632 230.362 414.994 230.66 414.529 231.156C414.063 231.651 413.803 232.305 413.803 232.985C413.803 233.665 414.063 234.319 414.529 234.814C414.994 235.309 415.632 235.608 416.31 235.65ZM444.8 180.15C445.071 179.498 445.071 178.764 444.801 178.112C444.531 177.459 444.013 176.94 443.36 176.67C442.708 176.399 441.975 176.399 441.322 176.669C440.669 176.939 440.151 177.458 439.88 178.11C439.746 178.433 439.677 178.779 439.677 179.129C439.677 179.479 439.746 179.825 439.879 180.148C440.013 180.471 440.209 180.765 440.456 181.012C440.704 181.26 440.997 181.456 441.32 181.59C441.643 181.724 441.989 181.793 442.339 181.793C442.689 181.793 443.035 181.724 443.358 181.591C443.682 181.457 443.975 181.261 444.223 181.014C444.47 180.767 444.666 180.473 444.8 180.15ZM423.7 151.84C423.835 151.518 423.905 151.172 423.905 150.822C423.906 150.473 423.839 150.127 423.706 149.804C423.573 149.481 423.378 149.187 423.132 148.939C422.885 148.691 422.592 148.495 422.27 148.36C421.948 148.225 421.602 148.156 421.253 148.155C420.903 148.154 420.557 148.221 420.234 148.354C419.911 148.487 419.617 148.682 419.369 148.928C419.122 149.175 418.925 149.468 418.79 149.79C418.656 150.113 418.586 150.459 418.585 150.809C418.584 151.159 418.653 151.506 418.786 151.83C418.919 152.153 419.115 152.447 419.362 152.695C419.609 152.943 419.902 153.14 420.225 153.275C420.548 153.41 420.895 153.479 421.245 153.48C421.595 153.481 421.941 153.412 422.265 153.279C422.588 153.146 422.883 152.95 423.131 152.703C423.379 152.456 423.576 152.163 423.71 151.84H423.7ZM414.36 144.28C414.587 144.001 414.754 143.679 414.854 143.334C414.953 142.988 414.981 142.627 414.937 142.27C414.893 141.913 414.777 141.569 414.597 141.258C414.417 140.947 414.176 140.676 413.888 140.461C413.601 140.245 413.273 140.09 412.924 140.004C412.575 139.919 412.212 139.904 411.857 139.962C411.503 140.02 411.163 140.149 410.86 140.341C410.556 140.533 410.294 140.784 410.09 141.08C409.698 141.648 409.541 142.346 409.652 143.027C409.763 143.708 410.134 144.32 410.686 144.734C411.238 145.148 411.929 145.332 412.614 145.247C413.299 145.163 413.925 144.816 414.36 144.28ZM403.93 132.8C404.638 132.8 405.317 132.519 405.818 132.018C406.319 131.517 406.6 130.838 406.6 130.13C406.6 129.422 406.319 128.743 405.818 128.242C405.317 127.741 404.638 127.46 403.93 127.46C403.252 127.502 402.614 127.8 402.149 128.296C401.683 128.791 401.423 129.445 401.423 130.125C401.423 130.805 401.683 131.459 402.149 131.954C402.614 132.449 403.252 132.748 403.93 132.79V132.8ZM483.68 125.17C484.387 125.17 485.065 124.889 485.565 124.389C486.064 123.89 486.345 123.212 486.345 122.505C486.345 121.798 486.064 121.12 485.565 120.621C485.065 120.121 484.387 119.84 483.68 119.84C482.973 119.84 482.295 120.121 481.796 120.621C481.296 121.12 481.015 121.798 481.015 122.505C481.015 123.212 481.296 123.89 481.796 124.389C482.295 124.889 482.973 125.17 483.68 125.17ZM494.7 101.05C494.7 101.755 494.42 102.432 493.921 102.931C493.422 103.43 492.746 103.71 492.04 103.71C491.335 103.71 490.658 103.43 490.159 102.931C489.66 102.432 489.38 101.755 489.38 101.05C489.38 100.344 489.66 99.6679 490.159 99.1691C490.658 98.6702 491.335 98.39 492.04 98.39C492.746 98.39 493.422 98.6702 493.921 99.1691C494.42 99.6679 494.7 100.344 494.7 101.05ZM501.02 84.55C501.727 84.55 502.405 84.2692 502.905 83.7694C503.404 83.2696 503.685 82.5918 503.685 81.885C503.685 81.1782 503.404 80.5003 502.905 80.0005C502.405 79.5007 501.727 79.22 501.02 79.22C500.313 79.22 499.635 79.5007 499.136 80.0005C498.636 80.5003 498.355 81.1782 498.355 81.885C498.355 82.5918 498.636 83.2696 499.136 83.7694C499.635 84.2692 500.313 84.55 501.02 84.55ZM557.7 42.5999C557.7 43.3068 557.419 43.9846 556.92 44.4844C556.42 44.9842 555.742 45.2649 555.035 45.2649C554.328 45.2649 553.65 44.9842 553.151 44.4844C552.651 43.9846 552.37 43.3068 552.37 42.5999C552.37 41.8931 552.651 41.2153 553.151 40.7155C553.65 40.2157 554.328 39.935 555.035 39.935C555.742 39.935 556.42 40.2157 556.92 40.7155C557.419 41.2153 557.7 41.8931 557.7 42.5999ZM572.9 54C572.922 54.3637 572.87 54.7281 572.746 55.0708C572.622 55.4135 572.43 55.7272 572.18 55.9926C571.93 56.258 571.629 56.4695 571.294 56.6141C570.96 56.7587 570.599 56.8333 570.235 56.8333C569.871 56.8333 569.51 56.7587 569.176 56.6141C568.841 56.4695 568.54 56.258 568.29 55.9926C568.041 55.7272 567.848 55.4135 567.724 55.0708C567.6 54.7281 567.548 54.3637 567.57 54C567.57 53.2918 567.851 52.6127 568.352 52.112C568.853 51.6113 569.532 51.33 570.24 51.33C570.948 51.33 571.627 51.6113 572.128 52.112C572.629 52.6127 572.91 53.2918 572.91 54H572.9ZM595.98 65.57C596.686 65.57 597.362 65.2897 597.861 64.7909C598.36 64.292 598.64 63.6154 598.64 62.91C598.64 62.2045 598.36 61.5279 597.861 61.029C597.362 60.5302 596.686 60.25 595.98 60.25C595.275 60.25 594.598 60.5302 594.099 61.029C593.6 61.5279 593.32 62.2045 593.32 62.91C593.32 63.6154 593.6 64.292 594.099 64.7909C594.598 65.2897 595.275 65.57 595.98 65.57ZM622.38 14.78C622.73 14.78 623.077 14.711 623.4 14.5771C623.723 14.4432 624.017 14.2469 624.265 13.9994C624.512 13.7519 624.708 13.4581 624.842 13.1348C624.976 12.8115 625.045 12.4649 625.045 12.115C625.045 11.765 624.976 11.4184 624.842 11.0951C624.708 10.7718 624.512 10.478 624.265 10.2305C624.017 9.98304 623.723 9.78674 623.4 9.65281C623.077 9.51888 622.73 9.44995 622.38 9.44995C621.673 9.44995 620.995 9.73073 620.496 10.2305C619.996 10.7303 619.715 11.4081 619.715 12.115C619.715 12.8218 619.996 13.4996 620.496 13.9994C620.995 14.4992 621.673 14.78 622.38 14.78Z" fill="#4093FF" fill-opacity="0.08" stroke="#4093FF" stroke-opacity="0.08" stroke-width="2" stroke-linecap="round" stroke-linejoin="round"/>
</g>
</svg>
