<svg width="60" height="60" viewBox="0 0 60 60" fill="none" xmlns="http://www.w3.org/2000/svg">
<g id="pdf_icon">
<g id="Group">
<path id="Vector" d="M43.5016 0H6.49902V60H53.5004V9.99875L43.5016 0Z" fill="#E8E8E8"/>
<path id="Vector_2" d="M45.5183 29.6717C44.7974 28.3868 42.3063 27.983 41.1634 27.8014C40.2626 27.6581 39.3429 27.6154 38.4318 27.6161C37.7164 27.6114 37.0115 27.6466 36.3157 27.6862C36.0592 27.7034 35.8053 27.7256 35.5516 27.7476C35.2916 27.4784 35.0403 27.2004 34.7971 26.916C33.2495 25.0841 32 23.0065 30.9818 20.8477C31.2521 19.8046 31.4684 18.7159 31.599 17.5853C31.8375 15.5219 31.9194 13.1703 31.1463 11.203C30.8793 10.524 30.1675 9.69737 29.3462 10.109C28.402 10.5824 28.1364 11.9235 28.0595 12.8742C27.9975 13.6426 28.0409 14.4131 28.1699 15.1686C28.3013 15.9293 28.5128 16.6517 28.7432 17.373C28.9581 18.0344 29.195 18.6906 29.4532 19.3407C29.2894 19.8525 29.1154 20.3553 28.9328 20.8453C28.5069 21.962 28.0464 23.023 27.6035 24.0435C27.37 24.5495 27.1414 25.0449 26.9178 25.5291C26.2101 27.0836 25.4419 28.6096 24.5796 30.0847C22.5684 30.7942 20.7636 31.6166 19.2647 32.5832C18.4607 33.1026 17.7504 33.6668 17.1589 34.2857C16.6004 34.8699 16.0329 35.628 15.9832 36.4673C15.9553 36.9411 16.1429 37.4008 16.531 37.6818C17.0647 38.0805 17.772 38.054 18.3912 37.9242C20.4196 37.4987 21.9773 35.7551 23.3038 34.2855C24.2175 33.2732 25.2574 31.9879 26.3453 30.4334C26.3476 30.4298 26.35 30.4263 26.3526 30.4227C28.2184 29.8443 30.249 29.3559 32.4041 28.9969C33.3886 28.8336 34.3993 28.7 35.4301 28.6062C36.155 29.2852 36.9383 29.9034 37.7928 30.4198C38.4583 30.8292 39.1662 31.1749 39.9072 31.4328C40.6564 31.6776 41.4102 31.8775 42.1885 32.0039C42.5815 32.0601 42.9835 32.0857 43.3941 32.0702C44.3106 32.0356 45.626 31.6841 45.7123 30.5721C45.7388 30.2318 45.6654 29.9333 45.5183 29.6717ZM23.5777 31.712C23.1484 32.377 22.7344 32.975 22.3444 33.5012C21.3891 34.801 20.2981 36.3448 18.7185 36.9221C18.4185 37.0317 18.0235 37.1449 17.6071 37.1204C17.2363 37.0986 16.8706 36.9349 16.8874 36.5138C16.8957 36.2933 17.0035 36.0121 17.169 35.7359C17.3501 35.4329 17.5743 35.155 17.8171 34.8996C18.3374 34.353 18.9952 33.8232 19.7519 33.3326C20.9126 32.5796 22.2983 31.9018 23.8429 31.297C23.754 31.4375 23.6653 31.5773 23.5777 31.712ZM28.9648 15.0372C28.8457 14.3418 28.8277 13.6367 28.9009 12.9587C28.9373 12.6197 29.0064 12.2888 29.1063 11.9787C29.191 11.7155 29.3739 11.0731 29.6656 10.9906C30.1465 10.8545 30.2943 11.8869 30.3487 12.179C30.6586 13.8405 30.3855 15.6883 30.0137 17.3182C29.9545 17.5774 29.8886 17.8325 29.8211 18.0866C29.706 17.7698 29.5961 17.452 29.495 17.1326C29.2773 16.435 29.0782 15.7293 28.9648 15.0372ZM32.2663 28.1538C30.4595 28.4467 28.7408 28.8304 27.1252 29.2834C27.3197 29.229 28.2087 27.5443 28.407 27.1946C29.3412 25.5491 30.1055 23.8221 30.6547 22.0103C31.6244 23.9281 32.8013 25.7628 34.2471 27.3959C34.3803 27.5441 34.5156 27.6906 34.6534 27.8352C33.8432 27.9225 33.0459 28.0288 32.2663 28.1538ZM44.4853 30.468C44.4192 30.8252 43.6563 31.0295 43.3003 31.0857C42.2483 31.2511 41.1353 31.1187 40.1284 30.7805C39.4375 30.5486 38.7712 30.2327 38.1381 29.8528C37.5088 29.4726 36.9201 29.0254 36.3697 28.5322C37.0483 28.4914 37.7352 28.4647 38.4255 28.4778C39.1158 28.4847 39.8114 28.5195 40.4985 28.6092C41.787 28.7529 43.2308 29.1952 44.2451 30.0313C44.4447 30.1961 44.5085 30.3418 44.4853 30.468Z" fill="#4093FF"/>
<path id="Vector_3" d="M45.049 4.99947H6.49902V0H43.5016L45.049 4.99947Z" fill="#4093FF"/>
<g id="Group_2">
<path id="Vector_4" d="M25.1015 47.7233C25.1015 48.7842 24.7888 49.6035 24.1631 50.1814C23.5373 50.7594 22.6488 51.0483 21.497 51.0483H20.7761V54.1983H18.2109V44.7034H21.4972C22.6965 44.7034 23.5971 44.9654 24.1989 45.4892C24.8007 46.0131 25.1015 46.7577 25.1015 47.7233ZM20.7763 48.9572H21.2439C21.6292 48.9572 21.9356 48.8491 22.1629 48.6324C22.3903 48.4159 22.5039 48.1171 22.5039 47.7361C22.5039 47.0953 22.1489 46.775 21.4388 46.775H20.7763V48.9572Z" fill="#A4A9AD"/>
<path id="Vector_5" d="M34.675 49.2495C34.675 50.834 34.2386 52.055 33.3663 52.9123C32.494 53.7696 31.2674 54.1983 29.6872 54.1983H26.6152V44.7034H29.9015C31.4255 44.7034 32.602 45.093 33.4312 45.8723C34.2602 46.6517 34.675 47.7775 34.675 49.2495ZM32.0123 49.3405C32.0123 48.4701 31.8401 47.8252 31.496 47.4051C31.1518 46.9851 30.629 46.7752 29.9274 46.7752H29.1808V52.094H29.7523C30.5318 52.094 31.1031 51.8678 31.4669 51.4152C31.8304 50.9631 32.0123 50.2714 32.0123 49.3405Z" fill="#A4A9AD"/>
<path id="Vector_6" d="M38.9023 54.1983H36.376V44.7034H41.9873V46.7621H38.9023V48.574H41.7469V50.6328H38.9023V54.1983Z" fill="#A4A9AD"/>
</g>
<path id="Vector_7" d="M43.502 9.99875H53.5007L43.502 0V9.99875Z" fill="#D1D3D3"/>
</g>
</g>
</svg>
